<svg xmlns="http://www.w3.org/2000/svg" xmlns:xlink="http://www.w3.org/1999/xlink" viewBox="0 0 155.44 155.44"><defs><style>.cls-1{fill:none;}.cls-2{clip-path:url(#clip-path);}.cls-3{fill:#ff8d00;}.cls-4{fill:#ffb352;}</style><clipPath id="clip-path" transform="translate(0 -0.19)"><rect class="cls-1" width="155" height="155"/></clipPath></defs><g id="圖層_2" data-name="圖層 2"><g id="圖層_1-2" data-name="圖層 1"><g id="Group_596" data-name="Group 596"><g class="cls-2"><g id="Group_595" data-name="Group 595"><path id="Path_845" data-name="Path 845" class="cls-3" d="M77.72,87a3,3,0,1,0,3,3,3,3,0,0,0-3-3" transform="translate(0 -0.19)"/><path id="Path_846" data-name="Path 846" class="cls-4" d="M146.33.19H9.11a9.11,9.11,0,0,0,0,18.22H20v8.76L8.78,38.42a3,3,0,0,0,2.15,5.18H35.22a3,3,0,0,0,2.14-5.18L26.11,27.17V18.41H56.47v8.76L45.21,38.42a3,3,0,0,0,0,4.3,3,3,0,0,0,2.14.88H71.65a3,3,0,0,0,2.14-5.18L62.54,27.17V18.41H92.9v8.76L81.64,38.42a3,3,0,0,0,2.15,5.18h24.29a3,3,0,0,0,2.14-5.18L99,27.17V18.41h30.36v8.76L118.08,38.42a3,3,0,0,0,2.14,5.18h24.29a3,3,0,0,0,3-3,3.07,3.07,0,0,0-.88-2.15L135.4,27.17V18.41h10.93a9.11,9.11,0,0,0,0-18.22M18.26,37.53l4.81-4.81,4.82,4.81Zm36.43,0,4.81-4.81,4.81,4.81Zm36.43,0,4.82-4.81,4.81,4.81Zm36.43,0,4.82-4.81,4.81,4.81Zm18.78-25.2H9.11a3,3,0,1,1,0-6.07H146.33a3,3,0,1,1,0,6.07" transform="translate(0 -0.19)"/><path id="Path_847" data-name="Path 847" class="cls-3" d="M155.44,84a9.12,9.12,0,0,0-9.11-9.1H117.19V66.12l11.25-11.26a3,3,0,0,0-2.15-5.18H102a3,3,0,0,0-2.15,5.18l11.25,11.26v8.76H56.47V58.79a9.11,9.11,0,0,0-18.22,0V74.88H32.18V58.79a3,3,0,0,0-3-3H17a3,3,0,0,0-3,3V74.88H9.11a9.11,9.11,0,0,0-3,17.69v57H3a3,3,0,0,0,0,6.07H152.4a3,3,0,1,0,0-6.07h-3v-57A9.13,9.13,0,0,0,155.44,84M119,55.75l-4.81,4.82-4.82-4.82Zm-74.64,3a3,3,0,1,1,6.07,0h0V74.88H44.33ZM20,61.82h6.08V74.88H20Zm27.33,49.49H35.22a3,3,0,1,1,0-6.07H47.36a3,3,0,1,1,0,6.07M37,117.38h8.58l1.77,13.05H35.22ZM34.4,136.5H48.18L50,149.56H32.62Zm49.39-25.2H71.65a3,3,0,1,1,0-6.07H83.79a3,3,0,1,1,0,6.07m-10.36,6.08H82l1.78,13.05H71.65Zm-2.6,19.12H84.61l1.78,13.06H69.05Zm49.4-25.2H108.08a3,3,0,1,1,0-6.07h12.14a3,3,0,1,1,0,6.07m-10.36,6.08h8.58l1.78,13.05H108.09Zm-2.6,19.12H121l1.78,13.06H105.48ZM129,149.56l-1.8-13.18a3,3,0,0,0-.81-5.95l-1.91-14.09a9.1,9.1,0,0,0-4.2-17.18H108.08a9.1,9.1,0,0,0-4.21,17.18L102,130.43a3,3,0,0,0-.81,5.95l-1.79,13.18H92.51l-1.79-13.18a3,3,0,0,0-.81-5.95L88,116.34a9.1,9.1,0,0,0-4.2-17.18H71.65a9.1,9.1,0,0,0-4.21,17.19l-1.91,14.09a3,3,0,0,0-.81,5.94l-1.8,13.18H56.08l-1.79-13.18a3,3,0,0,0-.81-5.95l-1.92-14.09a9.1,9.1,0,0,0-4.2-17.18H35.22A9.1,9.1,0,0,0,31,116.34l-1.91,14.1a3,3,0,0,0-.81,5.94L26.5,149.56H12.14V93.09H65.58a3,3,0,0,0,0-6.07H9.11a3,3,0,1,1,0-6.07H146.33a3,3,0,1,1,0,6.07H89.86a3,3,0,0,0,0,6.07H143.3v56.47Z" transform="translate(0 -0.19)"/></g></g></g></g></g></svg>