<svg xmlns="http://www.w3.org/2000/svg" xmlns:xlink="http://www.w3.org/1999/xlink" viewBox="0 0 146.65 160.91"><defs><style>.cls-1{fill:none;}.cls-2{clip-path:url(#clip-path);}.cls-3{fill:#ffb352;}.cls-4{fill:#ff8d00;}</style><clipPath id="clip-path" transform="translate(0.01 0.01)"><rect class="cls-1" width="146.63" height="160.91"/></clipPath></defs><g id="圖層_2" data-name="圖層 2"><g id="圖層_1-2" data-name="圖層 1"><g id="Group_594" data-name="Group 594"><g class="cls-2"><g id="Group_593" data-name="Group 593"><path id="Path_823" data-name="Path 823" class="cls-3" d="M131.57,103.85a15.39,15.39,0,0,0-7.21-10,15.69,15.69,0,0,0-3.2-1.6,2,2,0,0,0-2.4.8l-14.61,23.43a1.86,1.86,0,0,0,.4,2.4,13.33,13.33,0,0,0,2.6,2,16.43,16.43,0,0,0,8.61,2.4,15.67,15.67,0,0,0,13.61-7.61c2.4-3.2,3-7.61,2.2-11.81m-5.6,10a12.42,12.42,0,0,1-7.61,5.4,11.53,11.53,0,0,1-9.21-1.6,1,1,0,0,0-.8-.4l12.81-20.62a2.76,2.76,0,0,1,.8.6,12.35,12.35,0,0,1,5.41,7.61,10.45,10.45,0,0,1-1.4,9" transform="translate(0.01 0.01)"/><path id="Path_824" data-name="Path 824" class="cls-4" d="M122.36,109.26l-1.4-.8a2,2,0,1,0-2.35,3.3l.15.1,1.4.8a3.61,3.61,0,0,0,1,.4,2.18,2.18,0,0,0,1.2-3.8" transform="translate(0.01 0.01)"/><path id="Path_825" data-name="Path 825" class="cls-4" d="M118.16,115.66l-.2-2.4a2.35,2.35,0,0,0-2.2-1.79,2,2,0,0,0-1.8,2.2l.2,2.4a2.13,2.13,0,0,0,2,1.8h.2a2,2,0,0,0,1.8-2.21" transform="translate(0.01 0.01)"/><path id="Path_826" data-name="Path 826" class="cls-4" d="M125.17,103.45a1.73,1.73,0,0,0-2.06-1.31,1.23,1.23,0,0,0-.34.11l-2,.8a2.07,2.07,0,0,0-1.2,2.6,1.9,1.9,0,0,0,1.79,1.4.73.73,0,0,0,.6-.2l2-.8a2.09,2.09,0,0,0,1.21-2.6" transform="translate(0.01 0.01)"/><path id="Path_827" data-name="Path 827" class="cls-3" d="M48.49,74.62l-21-18a2.1,2.1,0,0,0-2.6,0,25,25,0,0,0-2.4,2.2,15.65,15.65,0,0,0-3.8,11.82,16.79,16.79,0,0,0,5.6,11,15.59,15.59,0,0,0,10.41,3.8h1.2a16.82,16.82,0,0,0,11-5.61,14.14,14.14,0,0,0,2-2.8,2.1,2.1,0,0,0-.4-2.4m-4.4,2.6a12.17,12.17,0,0,1-8.2,4.2,12.55,12.55,0,0,1-8.81-2.8,12.19,12.19,0,0,1-4.2-8.21,12.58,12.58,0,0,1,2.8-8.81l.6-.6L44.7,76.62l-.6.6" transform="translate(0.01 0.01)"/><path id="Path_828" data-name="Path 828" class="cls-4" d="M33.07,71.62a1.93,1.93,0,0,0-2.73.12l-.07.08L29.07,73a1.93,1.93,0,0,0,.13,2.73.46.46,0,0,0,.07.07,1.7,1.7,0,0,0,1.4.4,2.25,2.25,0,0,0,1.6-.6l1-1.2a1.93,1.93,0,0,0-.12-2.73l-.08-.07" transform="translate(0.01 0.01)"/><path id="Path_829" data-name="Path 829" class="cls-4" d="M28.87,66.62l-2.4-.2a2,2,0,0,0,0,4l2.4.2a2,2,0,0,0,2-2,1.89,1.89,0,0,0-1.78-2,.81.81,0,0,0-.22,0" transform="translate(0.01 0.01)"/><path id="Path_830" data-name="Path 830" class="cls-4" d="M38.88,77.23l-.4-2.2a2,2,0,1,0-4,.6,1.42,1.42,0,0,0,0,.2l.4,2.2a2,2,0,0,0,2,1.6h.4a2.08,2.08,0,0,0,1.6-2.4" transform="translate(0.01 0.01)"/><path id="Path_831" data-name="Path 831" class="cls-3" d="M121.56,75.83A16.63,16.63,0,0,0,114.15,66a15.38,15.38,0,0,0-12.21-1.6,16.72,16.72,0,0,0-9.81,7.4,16.26,16.26,0,0,0-1.4,3.2,2.12,2.12,0,0,0,1,2.4l24,13.82h.8a1.57,1.57,0,0,0,1.4-.6,13.33,13.33,0,0,0,2-2.6,15.45,15.45,0,0,0,1.6-12.22m-5,10c-.2.2-.2.4-.4.8l-21-12c.2-.4.2-.6.4-1a11.7,11.7,0,0,1,7.41-5.6,12.24,12.24,0,0,1,9.21,1.2,11.72,11.72,0,0,1,5.61,7.41,12.28,12.28,0,0,1-1.2,9.21" transform="translate(0.01 0.01)"/><path id="Path_832" data-name="Path 832" class="cls-4" d="M110.35,72.42a2,2,0,0,0-2.77.74l0,.06-.8,1.4a2,2,0,0,0,.74,2.77l.06,0a1.82,1.82,0,0,0,1,.2,2.37,2.37,0,0,0,1.8-1l.8-1.4a2,2,0,0,0-.74-2.77l-.06,0" transform="translate(0.01 0.01)"/><path id="Path_833" data-name="Path 833" class="cls-4" d="M114.15,77.23l-2.2.4a2.35,2.35,0,0,0-1.8,2.2,2.14,2.14,0,0,0,2,1.8h.2l2.2-.4a2.34,2.34,0,0,0,1.8-2.2,1.81,1.81,0,0,0-1.77-1.85,1.58,1.58,0,0,0-.43,0" transform="translate(0.01 0.01)"/><path id="Path_834" data-name="Path 834" class="cls-4" d="M105.15,73.42l-.8-2a2,2,0,0,0-3.6,1.6l.79,2a1.93,1.93,0,0,0,1.8,1.2,1.18,1.18,0,0,0,.8-.2,1.83,1.83,0,0,0,1.12-2.34,1.23,1.23,0,0,0-.12-.26" transform="translate(0.01 0.01)"/><path id="Path_835" data-name="Path 835" class="cls-4" d="M71.71,50.4a2.28,2.28,0,0,0-1.4-1.6L45.88,42.39h-.4c-.2,0-.2-.2-.4-.2l-24.42-6.4a1.79,1.79,0,0,0-2,.6c-.8.8-17.42,20-12.41,37,2.6,8.81,10.81,15.22,24,18.82L14.65,152.3,2.44,149.1A2.06,2.06,0,0,0,0,150.5a2.06,2.06,0,0,0,1.4,2.4l28.43,7.41h.6a2.18,2.18,0,0,0,2-1.4,2.06,2.06,0,0,0-1.4-2.4l-12.41-3L34.27,93.45a57.17,57.17,0,0,0,12.22,1.6c7.4,0,13.41-2.2,17.81-6.41C77.12,76.43,71.91,51.4,71.71,50.4m-10,35.24c-5.81,5.6-15.21,6.8-27.83,3.39h-.8c-12.81-3.39-20.42-9-22.82-16.61-2.2-7,.4-14.82,3.4-21v.2l1.4-.2a32.77,32.77,0,0,1,14.41.6,31.77,31.77,0,0,1,12.82,6.4,34.46,34.46,0,0,0,14.22,7,38,38,0,0,0,9.41,1.4,11.93,11.93,0,0,0,2.8-.2c-.2,6.81-2,14.22-7,19m-4-24A31.69,31.69,0,0,1,44.89,55.2a34.59,34.59,0,0,0-14.21-7,35.06,35.06,0,0,0-14.62-1c2-3.2,4-5.81,5-7.21l23,6h.4c.2,0,.2.19.4.19l23,6a71.46,71.46,0,0,1,1,10.21,28.85,28.85,0,0,1-11.21-.8" transform="translate(0.01 0.01)"/><path id="Path_836" data-name="Path 836" class="cls-4" d="M146.59,149.5a2,2,0,0,0-2.56-1.22l0,0-12,3.8-6-18.42q27.63-19.52-1.8-68.27A62.16,62.16,0,0,1,116,41.19c6.41-.6,11.81-3.6,15-8.61a20.73,20.73,0,0,0,2.4-17.82A21.33,21.33,0,0,0,123,2.35,21.72,21.72,0,0,0,106.75,1,21.34,21.34,0,0,0,92.53,26l-26,8.41a2.47,2.47,0,0,0-1.4,1.4,1.93,1.93,0,0,0,.4,1.8c.2.2,16.62,18.42,18.22,40.64,3,37.44,15.82,56.46,38,56.46l6,18.42-12,3.8a2.08,2.08,0,0,0,.8,4h.6l27.63-9a1.9,1.9,0,0,0,1.86-2,1.61,1.61,0,0,0-.06-.44M108.15,5a17.18,17.18,0,0,1,21.62,11,16.74,16.74,0,0,1-2,14.42c-1.8,2.8-5.61,6-12.21,6.81a93.41,93.41,0,0,1-.2-15.42,2.19,2.19,0,0,0-.8-1.8,2,2,0,0,0-1.8-.4L96.74,25A17.27,17.27,0,0,1,108.15,5m-28,47a95.52,95.52,0,0,0-9.21-14.61l40.44-13a92.84,92.84,0,0,0,1.2,19.42,10.44,10.44,0,0,1-5.4,3.8c-3.4,1.2-5.81.2-8.41-.6-3-1-6.21-2.2-11-.6A14.39,14.39,0,0,0,80.12,52m8,26.23a62.61,62.61,0,0,0-6-22l.2-.4c1.6-2.4,3-4.4,6.41-5.4,3.4-1.21,5.8-.21,8.41.59,3,1,6.2,2.2,11,.6a16.32,16.32,0,0,0,5-2.8,64.65,64.65,0,0,0,7.41,18.82c18.62,31,19.42,51.66,2.2,63.27-20.22.6-31.63-16.62-34.63-52.66" transform="translate(0.01 0.01)"/><path id="Path_837" data-name="Path 837" class="cls-4" d="M127.17,17a2,2,0,0,0-2.56-1.22h0l-4.4,1.41a1.78,1.78,0,0,0-1.27,2.19,1.72,1.72,0,0,0,.07.21,2,2,0,0,0,2,1.4h.6l4.4-1.4A2,2,0,0,0,127.18,17v0" transform="translate(0.01 0.01)"/><path id="Path_838" data-name="Path 838" class="cls-4" d="M113.15,13.56l-1.4-4.4a2,2,0,0,0-3.8,1.4l1.4,4.2a2,2,0,0,0,2,1.4h.6a2,2,0,0,0,1.22-2.55l0,0" transform="translate(0.01 0.01)"/><path id="Path_839" data-name="Path 839" class="cls-4" d="M125.37,25.17,121.16,23a1.92,1.92,0,0,0-1.93,3.33l.14.07,4.2,2.2a1.45,1.45,0,0,0,1,.2,2.09,2.09,0,0,0,1.8-1,2.14,2.14,0,0,0-1-2.6" transform="translate(0.01 0.01)"/><path id="Path_840" data-name="Path 840" class="cls-4" d="M107.75,16.36l-4.2-2.2a2,2,0,0,0-2,3.4l4.2,2.2a1.41,1.41,0,0,0,1,.2,2.09,2.09,0,0,0,1.8-1,1.77,1.77,0,0,0-.51-2.44,2.69,2.69,0,0,0-.29-.16" transform="translate(0.01 0.01)"/><path id="Path_841" data-name="Path 841" class="cls-4" d="M120.36,8.76a1.76,1.76,0,0,0-2.45.51,1.59,1.59,0,0,0-.15.29l-2.6,4a2.31,2.31,0,0,0,1,2.8,1.52,1.52,0,0,0,1,.2,2.12,2.12,0,0,0,1.8-1l2.2-4.2a1.76,1.76,0,0,0-.51-2.45,1.59,1.59,0,0,0-.29-.15" transform="translate(0.01 0.01)"/><path id="Path_842" data-name="Path 842" class="cls-4" d="M65.3.15a1.9,1.9,0,0,0-2,1.77v.23l-.4,20.62a2,2,0,0,0,2,2,1.89,1.89,0,0,0,2-1.78.81.81,0,0,0,0-.22l.4-20.62a1.89,1.89,0,0,0-1.77-2H65.3" transform="translate(0.01 0.01)"/><path id="Path_843" data-name="Path 843" class="cls-4" d="M83.32,13a2.15,2.15,0,0,0-2.8.59l-5.4,9a2.15,2.15,0,0,0,.6,3h0a1.65,1.65,0,0,0,1,.2,2.37,2.37,0,0,0,1.8-1l5.4-9a2.14,2.14,0,0,0-.6-2.79" transform="translate(0.01 0.01)"/><path id="Path_844" data-name="Path 844" class="cls-4" d="M54.89,22.77l-5.6-9a2,2,0,1,0-3.5,2.05l.1.15,5.8,9a2,2,0,0,0,1.6,1c.4,0,.8,0,1-.4a2,2,0,0,0,.67-2.7.36.36,0,0,0-.07-.1" transform="translate(0.01 0.01)"/></g></g></g></g></g></svg>