<svg xmlns="http://www.w3.org/2000/svg" xmlns:xlink="http://www.w3.org/1999/xlink" viewBox="0 0 26.39 26.39"><defs><style>.cls-1{fill-rule:evenodd;fill:url(#未命名漸層_2);}</style><linearGradient id="未命名漸層_2" x1="110" y1="825.77" x2="110.86" y2="824.88" gradientTransform="matrix(26.39, 0, 0, -26.39, -2899.66, 21791.35)" gradientUnits="userSpaceOnUse"><stop offset="0" stop-color="#6f88ff"/><stop offset="0.38" stop-color="#ff4695"/><stop offset="1" stop-color="#ffdc80"/></linearGradient></defs><g id="圖層_2" data-name="圖層 2"><g id="圖層_1-2" data-name="圖層 1"><path id="Path_236" data-name="Path 236" class="cls-1" d="M13.2,2.37a40.18,40.18,0,0,1,5.26.14A6.81,6.81,0,0,1,21,3a5.11,5.11,0,0,1,2.49,2.49,6.81,6.81,0,0,1,.44,2.49c0,1.31.14,1.75.14,5.26a40.29,40.29,0,0,1-.14,5.27A6.85,6.85,0,0,1,23.44,21,5.19,5.19,0,0,1,21,23.44a6.6,6.6,0,0,1-2.49.43c-1.31,0-1.75.15-5.26.15a40.29,40.29,0,0,1-5.27-.14,6.81,6.81,0,0,1-2.49-.44A5.11,5.11,0,0,1,3,21a6.81,6.81,0,0,1-.44-2.49c0-1.31-.14-1.75-.14-5.26a40.29,40.29,0,0,1,.14-5.27A6.81,6.81,0,0,1,3,5.44,5.36,5.36,0,0,1,4,4,2.48,2.48,0,0,1,5.44,3a6.81,6.81,0,0,1,2.49-.44,40.18,40.18,0,0,1,5.26-.14m0-2.34A42.5,42.5,0,0,0,7.78.17,9.09,9.09,0,0,0,4.56.76,5.79,5.79,0,0,0,2.22,2.22,5.79,5.79,0,0,0,.76,4.56,6.75,6.75,0,0,0,.17,7.78,42.61,42.61,0,0,0,0,13.2a42.5,42.5,0,0,0,.14,5.41,9.09,9.09,0,0,0,.59,3.22,5.73,5.73,0,0,0,1.46,2.34,5.79,5.79,0,0,0,2.34,1.46,8.86,8.86,0,0,0,3.22.58,44.55,44.55,0,0,0,5.42.15,44.44,44.44,0,0,0,5.41-.15,8.86,8.86,0,0,0,3.22-.58,6.18,6.18,0,0,0,3.8-3.8,8.86,8.86,0,0,0,.58-3.22c0-1.46.15-1.9.15-5.41a44.55,44.55,0,0,0-.15-5.42,8.86,8.86,0,0,0-.58-3.22,5.71,5.71,0,0,0-1.47-2.34A5.69,5.69,0,0,0,21.83.76,9.09,9.09,0,0,0,18.61.17,42.5,42.5,0,0,0,13.2,0m0,6.44A6.62,6.62,0,0,0,6.47,13a.81.81,0,0,0,0,.22A6.73,6.73,0,1,0,13.2,6.47m0,11.12a4.32,4.32,0,0,1-4.39-4.24V13.2A4.3,4.3,0,0,1,13,8.81h.16A4.3,4.3,0,0,1,17.58,13a.43.43,0,0,1,0,.16,4.31,4.31,0,0,1-4.23,4.39H13.2m7-13a1.61,1.61,0,1,0,1.61,1.61h0a1.64,1.64,0,0,0-1.61-1.61"/></g></g></svg>