<svg xmlns="http://www.w3.org/2000/svg" viewBox="0 0 29.85 28.55"><defs><style>.cls-1{fill:#00c300;}</style></defs><g id="圖層_2" data-name="圖層 2"><g id="圖層_1-2" data-name="圖層 1"><path id="Path_235" data-name="Path 235" class="cls-1" d="M25.4,3.54A16.64,16.64,0,0,0,14.92,0,16.66,16.66,0,0,0,4.44,3.54,11.22,11.22,0,0,0,0,12.28a11.17,11.17,0,0,0,4,8.36,16.07,16.07,0,0,0,8.77,3.78v3.26a.88.88,0,0,0,.88.87c1.51,0,5.6-1.85,9.06-4.52A22.33,22.33,0,0,0,27.63,19a12,12,0,0,0,2.22-6.68,11.25,11.25,0,0,0-4.44-8.74ZM9.59,16h-3a.71.71,0,0,1-.8-.61V9.23c0-.38.35-.64.87-.64s.87.26.87.64v5.14h2c.37,0,.63.33.63.8s-.26.8-.63.8Zm2.8-.64c0,.37-.37.64-.87.64s-.88-.26-.88-.64V9.23c0-.38.35-.64.88-.64s.87.26.87.64Zm5.95,0c0,.37-.36.64-.87.64a1,1,0,0,1-.93-.52L15,12.6v2.72c0,.37-.37.64-.87.64s-.87-.26-.87-.64V9.24c0-.39.35-.65.87-.65s.82.18,1.14.79l1.31,2.53V9.23c0-.38.35-.64.87-.64s.87.26.87.64Zm3.8-3.79a.69.69,0,0,1,.65.73v0a.67.67,0,0,1-.62.73H21v1.36h2.39c.37,0,.64.34.64.8a.7.7,0,0,1-.6.79H20a.7.7,0,0,1-.79-.61V9.24A.71.71,0,0,1,20,8.59h3.38a.7.7,0,0,1,.64.75v0c0,.46-.27.8-.64.8H21v1.35Z"/></g></g></svg>