<svg xmlns="http://www.w3.org/2000/svg" viewBox="0 0 81.03 87.27"><defs><style>.cls-1{fill:#002a4c;}</style></defs><g id="圖層_2" data-name="圖層 2"><g id="圖層_1-2" data-name="圖層 1"><path id="Path_58" data-name="Path 58" class="cls-1" d="M80.52,21.66a1.93,1.93,0,0,0-.12-2.73,2,2,0,0,0-1.31-.5H56.22l1.66-3.66a9.27,9.27,0,0,1,5.59-5l15.5-5L77.43,0,61.92,5a14.29,14.29,0,0,0-8.59,7.67l-2.57,5.71H1.94A1.93,1.93,0,0,0,0,20.34a1.9,1.9,0,0,0,.51,1.3L34,58.42V73.84L20.62,83.78a1.93,1.93,0,0,0,1.16,3.49H59.24a1.94,1.94,0,0,0,1.16-3.49L47,73.84V58.44ZM43.93,76.34l9.45,7H27.63l9.46-7a1.91,1.91,0,0,0,.79-1.55V57.7a1.9,1.9,0,0,0-.51-1.3l-31-34.1H49L44.16,33.06H20.21l20.3,22.35L60.8,33.06H49.6L54.45,22.3H74.67l-31,34.08a1.94,1.94,0,0,0-.51,1.31V74.81a2,2,0,0,0,.78,1.56Z"/></g></g></svg>