<svg xmlns="http://www.w3.org/2000/svg" viewBox="0 0 134 134"><defs><style>.cls-1{fill:#ff8d00;}.cls-2{fill:#fff;}</style></defs><g id="圖層_2" data-name="圖層 2"><g id="圖層_1-2" data-name="圖層 1"><rect id="Rectangle_1591" data-name="Rectangle 1591" class="cls-1" width="134" height="134" rx="20"/><path id="QR-code" class="cls-2" d="M90.33,107a3.34,3.34,0,0,1,0-6.67H97A3.33,3.33,0,0,0,100.33,97h0V90.33a3.34,3.34,0,0,1,6.67,0V97a10,10,0,0,1-10,10Zm-46.66,0H37A10,10,0,0,1,27,97V90.33a3.34,3.34,0,0,1,6.67,0V97A3.33,3.33,0,0,0,37,100.33h6.67a3.34,3.34,0,0,1,0,6.67Zm60-36.67H30.33a3.33,3.33,0,1,1,0-6.66h73.34a3.33,3.33,0,1,1,0,6.66Zm0-23.33a3.34,3.34,0,0,1-3.34-3.33h0V37A3.33,3.33,0,0,0,97,33.67H90.33a3.34,3.34,0,0,1,0-6.67H97a10,10,0,0,1,10,10v6.67A3.33,3.33,0,0,1,103.67,47ZM30.33,45.73A3.33,3.33,0,0,1,27,42.4h0V37A10,10,0,0,1,37,27h6.67a3.34,3.34,0,0,1,0,6.67H37A3.33,3.33,0,0,0,33.67,37h0v5.4a3.34,3.34,0,0,1-3.34,3.33Z"/></g></g></svg>