<svg xmlns="http://www.w3.org/2000/svg" viewBox="0 0 27.99 30.29"><defs><style>.cls-1{fill:#fff;}</style></defs><g id="圖層_2" data-name="圖層 2"><g id="圖層_1-2" data-name="圖層 1"><path id="_Color" data-name=" Color" class="cls-1" d="M23.32,21.2a4.58,4.58,0,0,0-3.05,1.16L9.18,16.11a4.65,4.65,0,0,0,.14-1A4.74,4.74,0,0,0,9.18,14l11-6.19A4.71,4.71,0,0,0,23.32,9,4.59,4.59,0,0,0,28,4.53h0a4.67,4.67,0,0,0-9.34,0,5.3,5.3,0,0,0,.14,1.05l-11,6.19a4.72,4.72,0,0,0-3.18-1.22,4.52,4.52,0,1,0-.26,9h.26a4.76,4.76,0,0,0,3.18-1.22L18.9,24.62a4,4,0,0,0-.12,1,4.54,4.54,0,1,0,4.69-4.4Z"/></g></g></svg>