<svg xmlns="http://www.w3.org/2000/svg" viewBox="0 0 33 33"><defs><style>.cls-1{fill:#002a4c;}.cls-2{fill:none;stroke:#6f8dac;}.cls-3{fill:#ff8d00;}</style></defs><g id="圖層_2" data-name="圖層 2"><g id="圖層_1-2" data-name="圖層 1"><g id="Group_632" data-name="Group 632"><g id="Ellipse_87" data-name="Ellipse 87"><circle class="cls-1" cx="16.5" cy="16.5" r="16.5"/><circle class="cls-2" cx="16.5" cy="16.5" r="16"/></g><path id="Polygon_1-2" data-name="Polygon 1-2" class="cls-3" d="M16.15,9.38a1,1,0,0,1,1.38-.33.92.92,0,0,1,.32.33l2.08,3.36a1,1,0,0,0,.62.45l3.86.92a1,1,0,0,1,.52,1.63l-2.56,3a1,1,0,0,0-.24.73l.31,3.92a1,1,0,0,1-.93,1.07,1,1,0,0,1-.45-.07l-3.68-1.51a1,1,0,0,0-.76,0l-3.68,1.51a1,1,0,0,1-1.3-.55,1,1,0,0,1-.08-.45l.31-3.92a1,1,0,0,0-.24-.73l-2.56-3a1,1,0,0,1,.52-1.63l3.86-.92a1,1,0,0,0,.62-.45Z"/></g></g></g></svg>