<svg xmlns="http://www.w3.org/2000/svg" xmlns:xlink="http://www.w3.org/1999/xlink" viewBox="0 0 162 24"><defs><style>.cls-1{fill:none;}.cls-2{clip-path:url(#clip-path);}.cls-3{fill:gold;}</style><clipPath id="clip-path"><rect class="cls-1" x="2" y="2.5" width="168" height="20"/></clipPath></defs><g id="圖層_2" data-name="圖層 2"><g id="圖層_1-2" data-name="圖層 1"><g id="Group_612" data-name="Group 612"><g id="icon_toggle_star_24px" data-name="icon toggle star 24px"><rect id="Boundary" class="cls-1" width="24" height="24"/><g class="cls-2"><g id="Repeat_Grid_16" data-name="Repeat Grid 16"><path id="_Color" data-name=" Color" class="cls-3" d="M12,18.57l6.18,3.93-1.64-7.4,5.46-5-7.19-.64L12,2.5l-2.81,7L2,10.12l5.46,5L5.82,22.5Z"/><path id="_Color-2" data-name=" Color-2" class="cls-3" d="M47,18.57l6.18,3.93-1.64-7.4,5.46-5-7.19-.64L47,2.5l-2.81,7L37,10.12l5.46,5-1.64,7.4Z"/><path id="_Color-3" data-name=" Color-3" class="cls-3" d="M82,18.57l6.18,3.93-1.64-7.4,5.46-5-7.19-.64L82,2.5l-2.81,7L72,10.12l5.46,5-1.64,7.4Z"/><path id="_Color-4" data-name=" Color-4" class="cls-3" d="M117,18.57l6.18,3.93-1.64-7.4,5.46-5-7.19-.64L117,2.5l-2.81,7-7.19.64,5.46,5-1.64,7.4Z"/><path id="_Color-5" data-name=" Color-5" class="cls-3" d="M152,18.57l6.18,3.93-1.64-7.4,5.46-5-7.19-.64L152,2.5l-2.81,7-7.19.64,5.46,5-1.64,7.4Z"/></g></g></g></g></g></g></svg>