<svg xmlns="http://www.w3.org/2000/svg" viewBox="0 0 31.6 25.63"><defs><style>.cls-1{fill:#fff;fill-rule:evenodd;}</style></defs><g id="圖層_2" data-name="圖層 2"><g id="圖層_1-2" data-name="圖層 1"><path id="Path_39" data-name="Path 39" class="cls-1" d="M10,25.63A18.26,18.26,0,0,0,28.44,7.53V6.32A14.28,14.28,0,0,0,31.6,3a14.82,14.82,0,0,1-3.69,1A6.81,6.81,0,0,0,30.72.53a15.93,15.93,0,0,1-4,1.58A6.3,6.3,0,0,0,21.94,0a6.59,6.59,0,0,0-6.49,6.49,3.53,3.53,0,0,0,.17,1.41A18.14,18.14,0,0,1,2.28,1.05,6.75,6.75,0,0,0,1.4,4.39,7,7,0,0,0,4.21,9.82a5.88,5.88,0,0,1-3-.88h0a6.42,6.42,0,0,0,5.27,6.32,5.17,5.17,0,0,1-1.75.18,2.86,2.86,0,0,1-1.23-.18,6.65,6.65,0,0,0,6.15,4.57,13.3,13.3,0,0,1-8.08,2.81A5,5,0,0,1,0,22.47a16.58,16.58,0,0,0,10,3.16"/></g></g></svg>