<svg xmlns="http://www.w3.org/2000/svg" viewBox="0 0 34.24 21.98"><defs><style>.cls-1{fill:#fff;}</style></defs><g id="圖層_2" data-name="圖層 2"><g id="圖層_1-2" data-name="圖層 1"><g id="タッチアイコン"><path id="Path_79" data-name="Path 79" class="cls-1" d="M22.72,9h2l.09-.1a4.62,4.62,0,1,1,.09,6.61h-2A6.2,6.2,0,1,0,22.72,9Z"/><path id="Path_80" data-name="Path 80" class="cls-1" d="M16.79,18.78a30.52,30.52,0,0,1-2.59-2.5,1.24,1.24,0,0,1,.9-2.11l13,0h-.23a1.88,1.88,0,0,0-.05-3.76h0l-9.44,0-2-7.65A4.44,4.44,0,0,0,10.9.24L3.73,2.15H0V14.56H3.73S13.4,21,14.34,21.63C16,22.81,19,20.75,16.79,18.78Z"/></g></g></g></svg>