<svg xmlns="http://www.w3.org/2000/svg" viewBox="0 0 453.28 48.32"><defs><style>.cls-1{fill:gold;}.cls-2{fill:none;stroke:#d9d9d9;stroke-miterlimit:10;stroke-width:2.5px;}.cls-3{fill:#daa520;}</style></defs><g id="圖層_2" data-name="圖層 2"><g id="圖層_1-2" data-name="圖層 1"><g id="Group_796" data-name="Group 796"><rect id="Rectangle_1131" data-name="Rectangle 1131" class="cls-1" x="50.25" y="20.57" width="85" height="5"/><rect id="Rectangle_1132" data-name="Rectangle 1132" class="cls-1" x="184.25" y="20.57" width="85" height="5"/><rect id="Rectangle_1133" data-name="Rectangle 1133" class="cls-1" x="318.25" y="20.57" width="85" height="5"/><path id="Path_84" data-name="Path 84" class="cls-2" d="M40.84,3.6a24.41,24.41,0,0,1-30.4,0A24.39,24.39,0,1,0,44.72,7.48,24.13,24.13,0,0,0,40.84,3.6Z"/><g id="Group_422" data-name="Group 422"><path id="Path_85" data-name="Path 85" class="cls-3" d="M43.76,16.71a6.18,6.18,0,0,1-.22,2.83c-1.3,4.16-6.39,6.12-10.65,6.16a11.71,11.71,0,0,1-5.21-1.1,13.85,13.85,0,0,1-3.8-2.87c-.45-.46-.87-.95-1.28-1.45-.24-.3-1.17-1.21-.79-1.5a3.75,3.75,0,0,1,.86-.22,6.63,6.63,0,0,0,.87-.36,11.18,11.18,0,0,0,1.63-1c2-1.4,4.17-2.7,6.24-4A12,12,0,0,1,36.67,11,6.24,6.24,0,0,1,42,13.07,6.86,6.86,0,0,1,43.76,16.71Z"/><path id="Path_86" data-name="Path 86" class="cls-1" d="M22.61,19.42c0,.2-.15.35-.49.43a29.76,29.76,0,0,1-8.39,1.21,5.39,5.39,0,0,1-5-3.24A4.6,4.6,0,0,1,11.51,12a2.64,2.64,0,0,1,.4-.12c2.87-.91,5.56.9,7.42,2.79a19.62,19.62,0,0,1,3,3.93A1.7,1.7,0,0,1,22.61,19.42Z"/><path id="Path_87" data-name="Path 87" class="cls-1" d="M9.48,13.49a18.45,18.45,0,0,0-1.87,20S12.54,45.1,28.35,43.82c0,0,15.31-1.27,17.18-16.6,0,0,.6-6.62-2-11.25,0,0,1.45,9.82-13.69,8.86,0,0-5.95-.48-7.48-6.23C22.4,18.6,6.42,26.27,9.48,13.49Z"/></g><g id="Group_721" data-name="Group 721"><path id="Path_85-2" data-name="Path 85-2" class="cls-3" d="M177.76,14.71a6.18,6.18,0,0,1-.22,2.83c-1.3,4.16-6.39,6.12-10.65,6.16a11.71,11.71,0,0,1-5.21-1.1,13.85,13.85,0,0,1-3.8-2.87c-.45-.46-.87-.95-1.28-1.45-.24-.3-1.17-1.21-.79-1.5a3.75,3.75,0,0,1,.86-.22,6.63,6.63,0,0,0,.87-.36,11.18,11.18,0,0,0,1.63-1c2-1.4,4.17-2.7,6.24-4.05A12,12,0,0,1,170.67,9a6.24,6.24,0,0,1,5.32,2.1A6.86,6.86,0,0,1,177.76,14.71Z"/><path id="Path_86-2" data-name="Path 86-2" class="cls-1" d="M156.61,17.42c0,.2-.15.35-.49.43a29.76,29.76,0,0,1-8.39,1.21,5.39,5.39,0,0,1-5-3.24A4.6,4.6,0,0,1,145.51,10a2.64,2.64,0,0,1,.4-.12c2.87-.91,5.56.9,7.42,2.79a19.62,19.62,0,0,1,3,3.93A1.7,1.7,0,0,1,156.61,17.42Z"/><path id="Path_87-2" data-name="Path 87-2" class="cls-1" d="M143.48,11.49a18.45,18.45,0,0,0-1.87,20s4.93,11.65,20.74,10.37c0,0,15.31-1.27,17.18-16.6,0,0,.6-6.62-2-11.25,0,0,1.45,9.82-13.69,8.86,0,0-5.95-.48-7.48-6.23C156.4,16.6,140.42,24.27,143.48,11.49Z"/></g><g id="Group_726" data-name="Group 726"><path id="Path_85-3" data-name="Path 85-3" class="cls-3" d="M311.76,14.71a6.18,6.18,0,0,1-.22,2.83c-1.3,4.16-6.39,6.12-10.65,6.16a11.71,11.71,0,0,1-5.21-1.1,13.85,13.85,0,0,1-3.8-2.87c-.45-.46-.87-.95-1.28-1.45-.24-.3-1.17-1.21-.79-1.5a3.75,3.75,0,0,1,.86-.22,6.63,6.63,0,0,0,.87-.36,11.18,11.18,0,0,0,1.63-1c2-1.4,4.17-2.7,6.24-4.05A12,12,0,0,1,304.67,9a6.24,6.24,0,0,1,5.32,2.1A6.86,6.86,0,0,1,311.76,14.71Z"/><path id="Path_86-3" data-name="Path 86-3" class="cls-1" d="M290.61,17.42c0,.2-.15.35-.49.43a29.76,29.76,0,0,1-8.39,1.21,5.39,5.39,0,0,1-5-3.24A4.6,4.6,0,0,1,279.51,10a2.64,2.64,0,0,1,.4-.12c2.87-.91,5.56.9,7.42,2.79a19.62,19.62,0,0,1,3,3.93A1.7,1.7,0,0,1,290.61,17.42Z"/><path id="Path_87-3" data-name="Path 87-3" class="cls-1" d="M277.48,11.49a18.45,18.45,0,0,0-1.87,20s4.93,11.65,20.74,10.37c0,0,15.31-1.27,17.18-16.6,0,0,.6-6.62-2-11.25,0,0,1.45,9.82-13.69,8.86,0,0-5.95-.48-7.48-6.23C290.4,16.6,274.42,24.27,277.48,11.49Z"/></g><g id="Group_727" data-name="Group 727"><path id="Path_85-4" data-name="Path 85-4" class="cls-3" d="M445.76,14.71a6.18,6.18,0,0,1-.22,2.83c-1.3,4.16-6.39,6.12-10.65,6.16a11.71,11.71,0,0,1-5.21-1.1,13.85,13.85,0,0,1-3.8-2.87c-.45-.46-.87-.95-1.28-1.45-.24-.3-1.17-1.21-.79-1.5a3.75,3.75,0,0,1,.86-.22,6.63,6.63,0,0,0,.87-.36,11.18,11.18,0,0,0,1.63-1c2-1.4,4.17-2.7,6.24-4.05A12,12,0,0,1,438.67,9a6.24,6.24,0,0,1,5.32,2.1A6.86,6.86,0,0,1,445.76,14.71Z"/><path id="Path_86-4" data-name="Path 86-4" class="cls-1" d="M424.61,17.42c0,.2-.15.35-.49.43a29.76,29.76,0,0,1-8.39,1.21,5.39,5.39,0,0,1-5-3.24A4.6,4.6,0,0,1,413.51,10a2.64,2.64,0,0,1,.4-.12c2.87-.91,5.56.9,7.42,2.79a19.62,19.62,0,0,1,3,3.93A1.7,1.7,0,0,1,424.61,17.42Z"/><path id="Path_87-4" data-name="Path 87-4" class="cls-1" d="M411.48,11.49a18.45,18.45,0,0,0-1.87,20s4.93,11.65,20.74,10.37c0,0,15.31-1.27,17.18-16.6,0,0,.6-6.62-2-11.25,0,0,1.45,9.82-13.69,8.86,0,0-5.95-.48-7.48-6.23C424.4,16.6,408.42,24.27,411.48,11.49Z"/></g><g id="Group_424" data-name="Group 424"><path id="Path_84-2" data-name="Path 84-2" class="cls-2" d="M174.84,1.6a24.41,24.41,0,0,1-30.4,0,24.39,24.39,0,1,0,34.28,3.88A24.13,24.13,0,0,0,174.84,1.6Z"/></g><g id="Group_425" data-name="Group 425"><path id="Path_84-3" data-name="Path 84-3" class="cls-2" d="M308.84,1.6a24.41,24.41,0,0,1-30.4,0,24.39,24.39,0,1,0,34.28,3.88A24.13,24.13,0,0,0,308.84,1.6Z"/></g><g id="Group_426" data-name="Group 426"><path id="Path_84-4" data-name="Path 84-4" class="cls-2" d="M442.84,1.6a24.41,24.41,0,0,1-30.4,0,24.39,24.39,0,1,0,34.28,3.88A24.13,24.13,0,0,0,442.84,1.6Z"/></g></g></g></g></svg>