<svg xmlns="http://www.w3.org/2000/svg" viewBox="0 0 182.72 159.98"><defs><style>.cls-1{fill:#fff;}.cls-2{fill:#ff5172;}.cls-3{fill:none;stroke:#ff5172;stroke-linecap:round;stroke-width:8px;}</style></defs><g id="圖層_2" data-name="圖層 2"><g id="圖層_1-2" data-name="圖層 1"><g id="Group_61" data-name="Group 61"><g id="Polygon_3" data-name="Polygon 3"><path class="cls-1" d="M177.71,156H5a1,1,0,0,1-.87-1.5L90.49,4.5a1,1,0,0,1,1.74,0l86.35,150a1,1,0,0,1-.87,1.5Z"/><path class="cls-2" d="M91.36,11,10.2,152H172.52L91.36,11m0-11a5,5,0,0,1,4.33,2.51l86.35,150a5,5,0,0,1-4.33,7.5H5a5,5,0,0,1-4.34-7.5L87,2.51A5,5,0,0,1,91.36,0Z"/></g><g id="Group_56" data-name="Group 56"><line id="Line_7-2" data-name="Line 7-2" class="cls-3" x1="90.36" y1="35.97" x2="90.36" y2="113.97"/><line id="Line_8-2" data-name="Line 8-2" class="cls-3" x1="90.36" y1="133.97" x2="90.36" y2="138.97"/></g></g></g></g></svg>