<svg xmlns="http://www.w3.org/2000/svg" viewBox="0 0 457.79 348.99"><defs><style>.cls-1{fill:#babdbd;}.cls-2{fill:#fff;}.cls-3{fill:#0797ff;}.cls-4{fill:#ffea00;}.cls-5{fill:#ff8c00;}.cls-6{fill:#ff6503;}.cls-7{fill:#6ae0ff;}.cls-8{fill:#ffb564;}.cls-9{fill:#ffe491;}.cls-10{fill:#fffbcc;}</style></defs><g id="圖層_2" data-name="圖層 2"><g id="圖層_1-2" data-name="圖層 1"><g id="圖層_2-2" data-name="圖層 2"><g id="Layer_1" data-name="Layer 1"><path id="Path_369" data-name="Path 369" class="cls-1" d="M156.43,157.78h-1.29c-5.16-.37-13-3.31-21.27-14.79C121,125,110.51,65.05,111.93,41.76c.8-12.84,5.17-22.13,12.34-26.2a17,17,0,0,1,16.55,0,1.92,1.92,0,0,1,.82,2.55,1.88,1.88,0,0,1-2.54.79h0a13.22,13.22,0,0,0-12.87,0c-6,3.31-9.73,11.65-10.42,23.16-1.43,22.79,8.76,81.35,21.23,98.81,5.83,8.2,12.24,12.77,18.46,13.24a13.61,13.61,0,0,0,10.76-4.1,1.88,1.88,0,0,1,2.66,0l0,0a1.93,1.93,0,0,1,0,2.68,17.3,17.3,0,0,1-12.51,5.09Z"/><path id="Path_370" data-name="Path 370" class="cls-2" d="M156.43,156.65h-1.19c-4.93-.36-12.47-3.3-20.44-14.29C122,124.5,111.64,65,113.06,41.83c.76-12.44,5-21.4,11.78-25.28a15.92,15.92,0,0,1,15.35,0,.76.76,0,0,1,.38,1,.75.75,0,0,1-1,.38l-.05,0a14.38,14.38,0,0,0-14,0c-6.36,3.5-10.26,11.91-11,24-1.42,22.92,8.84,81.91,21.44,99.54,7.64,10.69,14.72,13.24,19.32,13.7A14.67,14.67,0,0,0,167,150.64a.76.76,0,0,1,1.06.19.77.77,0,0,1,0,.87,16.17,16.17,0,0,1-11.62,5Z"/><path id="Path_371" data-name="Path 371" class="cls-3" d="M35,349a7.43,7.43,0,0,1-3.11-.66c-8.43-3.67-9.72-13.23-9.49-20.05a11.62,11.62,0,0,1-9.59,2.58,6.59,6.59,0,0,1-4.9-3.3c-3-4.9-5-17.37,10.71-69.77a1.89,1.89,0,0,1,3.61,1.09C10.77,296.59,7,319,11.1,325.47a3.28,3.28,0,0,0,2.32,1.62,9.32,9.32,0,0,0,9.92-6.15,1.9,1.9,0,0,1,2.29-1.16A1.92,1.92,0,0,1,27,322c0,.2-3.9,18.36,6.62,22.89a3.89,3.89,0,0,0,3.3,0c5.66-2.61,10.56-15.61,12-20.38a1.88,1.88,0,0,1,3.7.53c0,1.39,3.54,6.62,7.08,7s6.09-5,7.81-14.43c2.68-15.22,1.19-33.08,0-47.5-1.06-12.28-1.85-22,0-26.7A7.1,7.1,0,0,1,69,241.21a1.88,1.88,0,1,1,2.82,2.5l-.14.15a3.81,3.81,0,0,0-.83,1c-1.65,3.84-.82,13.6,0,24.92,1.26,14.58,2.78,32.75,0,48.46-2.11,12-6.18,17.77-12,17.27a12.62,12.62,0,0,1-8.37-5.62c-2.19,5.88-6.62,15.38-12.41,18.12A7.85,7.85,0,0,1,35,349ZM13.12,253.42a1.89,1.89,0,0,1-.92-3.51,14.22,14.22,0,0,0,5.19-7.08,1.86,1.86,0,0,1,2.42-1h0a1.89,1.89,0,0,1,1,2.45A27.46,27.46,0,0,1,18.35,249a92.15,92.15,0,0,0,24.75-8,1.89,1.89,0,0,1,2.31,3,1.78,1.78,0,0,1-.66.33,86.34,86.34,0,0,1-31.53,9Zm65.8-37.25a1.77,1.77,0,0,1-1.16-.43,1.86,1.86,0,0,1-.34-2.6l0,0c17.34-21.93,27.33-52.13,29.78-89.75a1.85,1.85,0,0,1,1.94-1.76h0a1.89,1.89,0,0,1,1.79,2h0c-2.32,38.58-12.67,69.31-30.5,91.87a1.92,1.92,0,0,1-1.59.73ZM25.1,215.08h-.2a1.86,1.86,0,0,1-1.66-2v0c.7-6.62,1.26-13.53,1.86-20.72,1.92-22.89,4.2-48.92,10.81-66.79C46.8,96,57.62,83.41,65.69,74.28a58.37,58.37,0,0,0,9.2-12.6,52.24,52.24,0,0,0,4.6-18.63A47,47,0,0,1,89,16.59,40,40,0,0,1,118.78,0a31.35,31.35,0,0,1,25.48,11,1.86,1.86,0,0,1-.13,2.62l0,0a1.88,1.88,0,0,1-2.64,0A28,28,0,0,0,119,4a36.09,36.09,0,0,0-26.8,14.79,43.59,43.59,0,0,0-8.8,24.55,55.7,55.7,0,0,1-5,19.84A61.75,61.75,0,0,1,68.54,76.6c-7.74,8.93-18.33,21.13-29.09,50.08-6.45,17.4-8.56,43-10.45,65.87-.6,7.21-1.19,14.26-1.89,20.81a1.88,1.88,0,0,1-2,1.72Zm97.42-2.35a1.92,1.92,0,0,1-1.58-.86,1.88,1.88,0,0,1,.56-2.58c23.72-15.42,38.64-29.78,45.65-44.2,17.63-36,2-73.74-5.52-91.77-.77-1.82-1.43-3.31-2-4.77a1.88,1.88,0,0,1,1.06-2.44h0a1.91,1.91,0,0,1,2.45,1.06c.53,1.35,1.19,2.91,1.92,4.7,7.77,18.55,23.92,57.2,5.42,95-7.31,15-22.69,29.78-47,45.69a1.88,1.88,0,0,1-1,.3ZM130.4,31.11a2.53,2.53,0,1,1,0,.1Z"/><path id="Path_372" data-name="Path 372" class="cls-4" d="M152.33,230a5.62,5.62,0,0,1-1.16,0,9.71,9.71,0,0,1-4.76-3.71,6.44,6.44,0,0,1-1.59,1.82,5.1,5.1,0,0,1-3.94,1,6.89,6.89,0,0,1-4.76-3.5,5.59,5.59,0,0,1-2.25,1.92,4.24,4.24,0,0,1-4.1-.47c-5-3.3-2.61-11.64-2.32-12.6a1.89,1.89,0,0,1,3.61,1.1c-.63,2.15-1.32,7,.73,8.3.3.2.5.26.63.2.79-.34,1.72-2.58,2-4a1.89,1.89,0,0,1,3.71,0c.16,1.26,1.16,4.9,3.31,5.23a1.23,1.23,0,0,0,1.06-.24,6.1,6.1,0,0,0,1.52-3.3,1.85,1.85,0,0,1,1.55-1.66,1.9,1.9,0,0,1,2,1c.89,1.92,3,4.93,4.47,5.32a1,1,0,0,0,.79-.2,3.54,3.54,0,0,0,1.42-3.5c-.46-3.94-5.09-9.7-14.45-13.63a1.91,1.91,0,0,1-1-2.48,1.88,1.88,0,0,1,2.47-1h0c9.46,4,16,10.56,16.7,16.55a7.25,7.25,0,0,1-3,7,4.73,4.73,0,0,1-2.72.89Zm-58.42-2.25a4.25,4.25,0,0,1-2.29-.7c-4.86-3.07-2.48-12.5-2-14.39a1.89,1.89,0,1,1,3.72.63,2,2,0,0,1-.11.4c-1,3.31-1.52,9,.33,10.19,1.29-.3,2.55-3.31,3-5.69a1.92,1.92,0,0,1,1.92-1.49,1.85,1.85,0,0,1,1.79,1.62c.2,1.26,1.16,4.9,3.31,5.23a1.26,1.26,0,0,0,1.06-.24,6.28,6.28,0,0,0,1.52-3.3,1.85,1.85,0,0,1,1.62-1.66,1.89,1.89,0,0,1,2,1.19c.79,2.15,2.21,4.1,2.78,4.17a4.15,4.15,0,0,0,.82-3.64,17.14,17.14,0,0,0-6.35-11.15,1.91,1.91,0,0,1,1.92-3.31,20.65,20.65,0,0,1,8.17,13.93,7.62,7.62,0,0,1-1.59,6.62,4,4,0,0,1-3.77,1.26,6.3,6.3,0,0,1-3.31-2.52,6.05,6.05,0,0,1-1.45,1.62,5,5,0,0,1-3.94,1,6.61,6.61,0,0,1-4.56-3.31,6.83,6.83,0,0,1-3.12,3.31,4,4,0,0,1-1.59.27Zm222.77-21.18a2.43,2.43,0,0,1-.66,0,1.88,1.88,0,0,1-1.09-2.41l13.66-36.39c.8-2.12,2.18-2.32,2.78-2.32h0c.56,0,2,.24,2.75,2.35l8.17,22.6h0l4.93,13.6a1.89,1.89,0,1,1-3.48,1.46.49.49,0,0,1-.06-.17l-4.5-12.44H323.13l-4.66,12.48a2,2,0,0,1-1.79,1.25Zm7.88-17.5h13.23l-6.62-18ZM380,206.57a1.87,1.87,0,0,1-1.52-.79,19.8,19.8,0,0,1-1.89-9.4,22.39,22.39,0,0,0-.69-5.82,4.27,4.27,0,0,0-4.17-2.32,10.15,10.15,0,0,1-1.56,0H358.07v16.31a1.92,1.92,0,0,1-1.89,1.89,1.89,1.89,0,0,1-1.88-1.89V170.08a4.73,4.73,0,0,1,4.56-4.63H370A11.44,11.44,0,0,1,381.29,177a11.56,11.56,0,0,1-4.47,9.16,6.85,6.85,0,0,1,2.42,3.08,22.91,22.91,0,0,1,1,7.08,19.16,19.16,0,0,0,1.19,7.38,1.76,1.76,0,0,1-1.45,2.88Zm-21.9-22h12a5.79,5.79,0,0,0,1,0h0a7.78,7.78,0,0,0-1-15.52H358.86a.93.93,0,0,0-.89,1v0Zm-70.73,22h0a1.91,1.91,0,0,1-1.89-1.91v-34.6a4.7,4.7,0,0,1,4.79-4.61h11.1a11.58,11.58,0,0,1,.21,23.15H289.29v16.31a1.92,1.92,0,0,1-2,1.66Zm2-21.93h12a7.78,7.78,0,1,0,0-15.55H290.22a1,1,0,0,0-.9,1Zm151.58,21.93a1.88,1.88,0,0,1-1.88-1.88V187.88a3.89,3.89,0,0,1-1.13-1.19L426.28,168.4a1.9,1.9,0,0,1,.59-2.61h0a1.86,1.86,0,0,1,2.56.57l0,0,11.68,18.26L453,166.15a1.88,1.88,0,0,1,3.14,2l-12,18.53a4.58,4.58,0,0,1-1.26,1.26v16.54a1.91,1.91,0,0,1-1.78,2h-.21Zm-37.88,0a1.88,1.88,0,0,1-1.88-1.88V169.23H389.89a1.89,1.89,0,0,1-.09-3.78h26.56a1.89,1.89,0,0,1,.5,3.74,2.09,2.09,0,0,1-.5,0H405v35.5a1.94,1.94,0,0,1-1.86,1.89ZM253,66.21h-.43C251.94,66,185.91,51.52,160,62.9a1.86,1.86,0,0,1-2.05-.36C157.36,62,144.49,49.8,141.68,39a32.37,32.37,0,0,1,3.8-22.43,1.91,1.91,0,0,1,1.45-.92c44.63-4.3,86.51-3.87,107.82,47.77a2.11,2.11,0,0,1-1.29,2.68,2.07,2.07,0,0,1-.43.1ZM189.38,54.56a332.44,332.44,0,0,1,60.48,7c-20.58-45.69-58.2-46.38-101.47-42.25a28.32,28.32,0,0,0-2.84,18.56c2.15,8.24,11.41,18,14.29,20.87a84.83,84.83,0,0,1,29.54-4.2ZM240,55.85a1.88,1.88,0,0,1-.92-.26,82.52,82.52,0,0,0-39.7-9.2c-25.35,1.32-40.66,2.15-51.12-6.62a1.93,1.93,0,0,1-.23-2.68,1.85,1.85,0,0,1,2.61-.23l0,0c9.33,7.88,24.08,7.08,48.5,5.79A85.57,85.57,0,0,1,241,52.31a1.89,1.89,0,0,1-.92,3.54Z"/><path id="Path_373" data-name="Path 373" class="cls-5" d="M447.82,236.71H8.09a8.6,8.6,0,0,1,0-17.17H82a1.89,1.89,0,0,1,.08,3.77h-74a4.83,4.83,0,0,0,0,9.63H447.82a4.83,4.83,0,0,0,0-9.63H164.64a1.89,1.89,0,1,1-.09-3.77H447.82a8.6,8.6,0,0,1,0,17.17Z"/><path id="Path_374" data-name="Path 374" class="cls-6" d="M268.68,175.38a3.4,3.4,0,0,1-1.19,0c-1.52-.56-3.31-2.09-3.31-6.09,0-10.55,13.23-34.37,25.34-47.8l.8-2.78a34,34,0,0,1-16.21,6.75,39,39,0,0,1-9,16.84c-5,5.46-10.23,7.44-14.26,5.36a7.92,7.92,0,0,1-4.07-5,18,18,0,0,1,0-8.2c-5.16,6.61-11.51,12.66-17,12a4.27,4.27,0,0,1-3.57-2.28c-1.69-3.31,1.15-8.5,4.46-14.59,1.69-3.08,4.8-8.8,4.24-10.12h-.47a22.13,22.13,0,0,1-2.28-.27c-3.9,9.3-13.23,21.08-22.13,25.34-6.29,3-10.42,1.33-12.77-.63-13.5-11.18,1.75-47.07,13.23-62.42a1.85,1.85,0,0,1,2.6-.34h0a1.8,1.8,0,0,1,.42,2.53.56.56,0,0,1-.05.08c-12.6,16.54-24.32,48.7-14,57.23a7.76,7.76,0,0,0,8.77,0c7.81-3.74,16.54-14.59,20.11-22.89a9.13,9.13,0,0,1-5.72-5.29A5.89,5.89,0,0,1,234,109.63a6,6,0,0,1,.21,1.83,14.13,14.13,0,0,1-.63,4.14h1.29a4,4,0,0,1,3.51,2c1.55,2.85-.6,7-4.24,13.73-1.95,3.61-5.19,9.6-4.43,11.09a1.33,1.33,0,0,0,.69.26c6.22.73,17.17-14.49,22.76-24.51l.2-.37a1.9,1.9,0,0,1,2.55-.73,1.92,1.92,0,0,1,.73,2.58l-.23.43c-2.45,4.4-7.61,15.69-5.89,21.47a4.36,4.36,0,0,0,2.18,2.75c2.38,1.22,6-.5,9.93-4.6a36.13,36.13,0,0,0,7.94-14.42,9.72,9.72,0,0,1-5.73-2.72,8.1,8.1,0,0,1-2.38-8.33A5.57,5.57,0,0,1,267,110.5a6.89,6.89,0,0,1,6.32,3.74,12.63,12.63,0,0,1,1.66,7.21,35.37,35.37,0,0,0,17.9-9.92,1.88,1.88,0,0,1,2.28-.3,1.92,1.92,0,0,1,.86,2.15c-.2.63-.43,1.45-.7,2.41a20.93,20.93,0,0,1,6.36-3.9,8.79,8.79,0,0,1,10.12,1.69,16.1,16.1,0,0,1,2.61,12.77q8.33-6.73,16-14.26a1.84,1.84,0,0,1,2.54,0,1.86,1.86,0,0,1,.3,2.51c-3.77,5.17-13.23,19.85-10.75,26.67a4.52,4.52,0,0,0,3.31,3c6,1.65,14.49-7.91,20.48-17.5a34,34,0,0,1,6.61-11.12c4.9-5.1,9.63-4.57,12.21-2.61a6,6,0,0,1,1.72,7.87,1.91,1.91,0,0,1-3.31-1.92,2.24,2.24,0,0,0-.76-2.94c-1.42-1.09-4-1.09-7.21,2.21a29.5,29.5,0,0,0-5.82,9.73,1.69,1.69,0,0,1-.2.5,19.06,19.06,0,0,0-1.13,11.78,5.7,5.7,0,0,0,5,4c7.88,1.12,16.77-7.81,25.24-17.14A27.13,27.13,0,0,1,389,114.44a8.66,8.66,0,0,1,9.26-.16,1.87,1.87,0,0,1,.53,2.61,1.92,1.92,0,0,1-2.61.56,4.9,4.9,0,0,0-5.36.27A23.31,23.31,0,0,0,382,128.6a1.46,1.46,0,0,1-.2.5,20.13,20.13,0,0,0-1.62,7.61,6.61,6.61,0,0,0,3.31,6.19,2.67,2.67,0,0,0,2.18,0c5.2-2,11.55-14.06,15.22-22.17,1-2.61,1.89-4.5,2.18-5.09a1.89,1.89,0,0,1,2.45-.93,1.86,1.86,0,0,1,1,2.42c-.23.66-1,2.58-2.18,5.19-2.85,7.35-5.43,16.54-3.67,20.38a2.2,2.2,0,0,0,1.62,1.36c4.27,1.12,10.85-5.33,17.23-14.86a96.63,96.63,0,0,1,8.37-38.47c4.07-7.58,7.58-7,8.9-6.32,4.17,2,3.68,10.88-1.29,22.69a151.12,151.12,0,0,1-12.24,23.16,27.63,27.63,0,0,0,1.49,9.06,5.65,5.65,0,0,0,3.31,3.54c8,2.55,21.87-15.28,26.1-21.73a2,2,0,0,1,3.33,2l0,0c-1.82,2.78-18.13,27.1-30.37,23.16a9,9,0,0,1-5.49-5.69,23.43,23.43,0,0,1-1.39-5.66c-6.19,8.3-12.87,14-18.56,12.54a6.13,6.13,0,0,1-4.07-3.31,14.29,14.29,0,0,1-.79-7.24,24,24,0,0,1-9.43,9.36,6.27,6.27,0,0,1-5.19,0,10.19,10.19,0,0,1-5.53-9.63,12.69,12.69,0,0,1,0-2C369,142.7,361,149,352.94,148a9.33,9.33,0,0,1-8-6.61,15,15,0,0,1-.73-5.23c-5.22,6.62-12.53,13.6-19.42,11.65a8.46,8.46,0,0,1-5.85-5.54c-1.72-5,.86-12.14,4-18.29-3.17,2.83-6.49,5.5-9.93,8a30.65,30.65,0,0,1-1.42,3.77c-3.31,7.51-8.44,12-13.83,12a4,4,0,0,1-4.13-2.91c-.83-3.7,3.7-8.6,11.58-12.47a40.26,40.26,0,0,0,4.56-2.71c1.52-5.69,1.23-11.15-.92-13.5-1.29-1.39-3.31-1.62-6.12-.66a27.39,27.39,0,0,0-9.66,7.44c-5.1,17.14-15.26,48.27-22.4,51.87A4.05,4.05,0,0,1,268.68,175.38Zm17.93-44.63c-9.59,13-18.49,30.5-18.63,38.38,0,.82,0,2.21.77,2.48,3.3-.33,10.95-19.12,17.86-40.79ZM297.23,144h.4c3.6,0,7.24-3.3,9.92-8.63l-.79.4c-7.74,3.8-9.73,7.38-9.56,8.24ZM435.58,87.74c-.23,0-1.82.77-3.94,4.7A91.12,91.12,0,0,0,424,122.68a147.08,147.08,0,0,0,8.5-17.1c4.9-11.68,4-17.23,3.11-17.83ZM267.22,114.41h0a1.72,1.72,0,0,0-1.35,1.26,4.3,4.3,0,0,0,1.52,4.4,6,6,0,0,0,3.61,1.62,8.84,8.84,0,0,0-1.06-5.26C269,115.14,268.05,114.41,267.22,114.41ZM228,109.21a1.73,1.73,0,0,0-1.19.43,2.11,2.11,0,0,0-.43,2.29,5.41,5.41,0,0,0,3.47,3,10.6,10.6,0,0,0,.46-3.31c0-1.72-.69-2-1-2.15A3.36,3.36,0,0,0,228,109.21Zm109.5-1.85a2.21,2.21,0,0,1-1.09-.33,1.93,1.93,0,0,1-.47-2.65l1.59-2.28a1.88,1.88,0,0,1,2.61-.46,1.84,1.84,0,0,1,.49,2.57l0,0L339,106.53a1.88,1.88,0,0,1-1.55.67ZM190.08,99.75a1.7,1.7,0,0,1-.86-.2A13.61,13.61,0,0,1,183,82.32c4-10.72,16.14-8.84,29-6.88,10.19,1.55,21.74,3.3,30.9-.67a1.88,1.88,0,0,1,2.17,1.55,1.85,1.85,0,0,1-.65,1.76c-10.19,4.47-22.3,2.58-33.08,1-13.63-2.11-22.13-3-24.95,4.47a9.94,9.94,0,0,0,4.47,12.57,2,2,0,0,1,.71,2.7,1.93,1.93,0,0,1-1.5,1Z"/><path id="Path_375" data-name="Path 375" class="cls-7" d="M35,347.87a7.17,7.17,0,0,1-2.68-.46c-9.17-4-9.27-15.82-8.6-22A11,11,0,0,1,13,329.81,5.8,5.8,0,0,1,8.89,327c-4.63-7.44-1.23-29.18,10.75-68.88a.76.76,0,0,1,.95-.5h0a.73.73,0,0,1,.51.9v0c-11.65,38.61-15.26,60.68-11,67.56a4.4,4.4,0,0,0,3.11,2.15c7.88,1.22,11-6.62,11.05-6.88a.75.75,0,1,1,1.43.43h0c0,.2-4.1,19.25,7.18,24.15a5,5,0,0,0,4.36,0c7.25-3.31,12.47-20.91,12.54-21.08a.78.78,0,0,1,.83-.56.8.8,0,0,1,.63.76,11.59,11.59,0,0,0,8.1,8.14c4.1.4,7.35-5,9.13-15.12,2.75-15.38,1.23-33.34,0-47.8-1-12.11-1.85-21.7,0-26.13a6.2,6.2,0,0,1,1.36-1.89.74.74,0,0,1,1,0l0,0a.77.77,0,0,1,0,1.06,4.89,4.89,0,0,0-1.06,1.42c-1.75,4.07-.93,14,0,25.44,1.22,14.53,2.78,32.59,0,48.17-2.48,14.06-7.21,16.54-10.75,16.34a12.77,12.77,0,0,1-8.6-7.11c-1.72,5-6.32,16.81-12.6,19.85a6.75,6.75,0,0,1-2.95.46ZM13.12,252.29a.73.73,0,0,1-.73-.52.75.75,0,0,1,.37-.86,15.33,15.33,0,0,0,5.65-7.61.76.76,0,0,1,.91-.59.76.76,0,0,1,.58.9.6.6,0,0,1-.1.25,20.21,20.21,0,0,1-4.16,6.61,91.11,91.11,0,0,0,28-8.53.76.76,0,0,1,1,.38.77.77,0,0,1-.34,1,87.64,87.64,0,0,1-31.1,8.93Zm65.8-37.21a.61.61,0,0,1-.46,0,.74.74,0,0,1,0-1C96,191.92,106,161.52,108.23,123.64a.73.73,0,0,1,.76-.7h0a.76.76,0,0,1,.72.8h0c-2.38,38.17-12.53,68.87-30.23,91.24A.79.79,0,0,1,78.92,215.08Zm-53.92-1h0a.71.71,0,0,1-.68-.72.43.43,0,0,1,0-.11c.69-6.62,1.25-13.43,1.85-20.74,1.92-22.9,4.07-48.83,10.65-66.53C47.76,96.58,58.51,84.17,66.38,75.08a58.88,58.88,0,0,0,9.36-12.87,54,54,0,0,0,4.87-19.16,45.41,45.41,0,0,1,9.3-25.8,38.72,38.72,0,0,1,29-16,30.78,30.78,0,0,1,24.61,10.55.75.75,0,0,1-1,1.09l0,0a29,29,0,0,0-23.39-9.92A37.16,37.16,0,0,0,91.23,18.27a44.39,44.39,0,0,0-9,24.78A54.73,54.73,0,0,1,77.14,62.9a60.94,60.94,0,0,1-9.6,13.23C59.77,85,49.15,97.3,38.26,126.42c-6.61,17.53-8.63,43.37-10.52,66.16-.62,7.31-1.19,14.23-1.88,20.78a.73.73,0,0,1-.76.66Zm97.52-2.32a.93.93,0,0,1-.63-.33.76.76,0,0,1,.23-1.05h0c23.88-15.58,38.93-30.2,46.11-44.69,17.87-36.63,2-74.64-5.59-92.87-.73-1.78-1.39-3.3-1.92-4.73a.73.73,0,0,1,.39-1h0a.77.77,0,0,1,1,.43h0l1.92,4.7c7.71,18.43,23.72,56.8,5.46,94.09-7.21,14.75-22.43,29.57-46.54,45.22a.66.66,0,0,1-.43.2Zm8.86-180.58a1.55,1.55,0,1,0,0-.07Z"/><path id="Path_376" data-name="Path 376" class="cls-8" d="M268.32,174.19a3.1,3.1,0,0,1-.86,0c-1.69-.66-2.52-2.32-2.48-5,.2-10.16,13.23-33.94,25.17-47.18.73-2.38,1.36-4.6,1.92-6.61a34.12,34.12,0,0,1-19.22,9,37.18,37.18,0,0,1-8.93,17.24c-4.67,5.1-9.36,7-12.9,5.16a6.91,6.91,0,0,1-3.38-4.46,24.2,24.2,0,0,1,1.66-13.6c-5.36,7.77-13.23,17.33-19.55,16.54a3.32,3.32,0,0,1-2.75-1.69c-1.39-2.71,1.46-8,4.47-13.53,2.44-4.43,5.19-9.49,4.23-11.21a1.55,1.55,0,0,0-1.36-.63,18.7,18.7,0,0,1-3.24-.37c-3.6,9.13-13.23,21.4-21.9,25.61a10.29,10.29,0,0,1-11.58-.46c-12.84-10.59,2.22-45.85,13.63-60.87a.75.75,0,0,1,1.06,1.06c-11.55,15.18-25.57,49.06-13.83,58.78a8.81,8.81,0,0,0,9.93.27c8.53-4.07,17.7-15.88,21.13-24.58a8.64,8.64,0,0,1-6-5.1,4.57,4.57,0,0,1,6.55-5.65,4.52,4.52,0,0,1,2.52,4.53,15.49,15.49,0,0,1-.93,5,23.76,23.76,0,0,0,2.65.36,2.89,2.89,0,0,1,2.58,1.39c1.32,2.45-1.23,7.18-4.24,12.67-2.58,4.73-5.49,9.92-4.43,12.14a2,2,0,0,0,1.56.83c7.61.89,19.61-17.47,23.88-25.08l.2-.33a.76.76,0,0,1,1.32.73h0c-.82,1.52-8.3,15.35-6.12,22.63a5.32,5.32,0,0,0,2.75,3.3c2.91,1.49,6.91-.26,11.08-4.8a35.86,35.86,0,0,0,8.5-16.24,9.12,9.12,0,0,1-6.29-2.48A7,7,0,0,1,263,114.4a4.28,4.28,0,0,1,3.57-3,5.63,5.63,0,0,1,5.23,3.31,12.07,12.07,0,0,1,1.35,7.84A34.6,34.6,0,0,0,293,112.19a.8.8,0,0,1,.93,0,.73.73,0,0,1,.33.86c0,.43-.76,2.78-1.82,6.32a26.37,26.37,0,0,1,8.93-6.62,7.72,7.72,0,0,1,8.93,1.39c2.85,3.08,3.08,9,1.82,14.65a196.68,196.68,0,0,0,18.7-16.27.79.79,0,0,1,1,0,.72.72,0,0,1,0,1c0,.2-13.86,19-10.88,27.69a5.64,5.64,0,0,0,4.23,3.7c8.3,2.35,18.76-13.23,21.8-18.12A32.26,32.26,0,0,1,353.6,116c4.37-4.53,8.5-4.17,10.72-2.45a4.86,4.86,0,0,1,1.42,6.38.72.72,0,0,1-1,.25h0a.77.77,0,0,1-.27-1,3.31,3.31,0,0,0-1-4.4c-1.82-1.39-5.07-1.52-8.74,2.32-5.13,5.32-9.59,16.84-7.41,23.15a6.62,6.62,0,0,0,5.92,4.7c8.44,1.23,17.67-8,26.47-17.56A25.82,25.82,0,0,1,389.59,115a7.44,7.44,0,0,1,8.08-.2.74.74,0,0,1,.25,1l0,0a.76.76,0,0,1-1,.23h0a5.92,5.92,0,0,0-6.62.23A26,26,0,0,0,379,136.17a7.44,7.44,0,0,0,4,7.15,3.75,3.75,0,0,0,3.11,0c6-2.35,12.87-16.11,16.08-23.36,1-2.51,1.82-4.26,1.92-4.5a.75.75,0,1,1,1.38.6h0a42.47,42.47,0,0,1-1.91,4.5c-2.45,6.19-6.19,17.2-3.94,22a3.5,3.5,0,0,0,2.38,2c5.19,1.38,12.21-5.83,18.63-15.55A95.39,95.39,0,0,1,429,90.66c2.52-4.7,5.3-6.88,7.41-5.86,2.85,1.36,3.31,8.57-1.82,21.24a151.44,151.44,0,0,1-12.3,23.16,28.38,28.38,0,0,0,1.55,9.92,6.6,6.6,0,0,0,3.84,4.17c10.55,3.31,27.19-21.9,27.36-22.16a.79.79,0,0,1,1.06-.24.84.84,0,0,1,.23,1.06c-.73,1.09-17.44,26.47-29.11,22.8a8,8,0,0,1-4.77-5.07,27.6,27.6,0,0,1-1.62-8.3c-6.38,9.2-13.23,16-19.09,14.53a5,5,0,0,1-3.31-2.81,21.31,21.31,0,0,1,.43-12.74c-3.3,6.32-7.87,12.64-12.07,14.26a5.13,5.13,0,0,1-4.3,0,9,9,0,0,1-4.9-8.47,20.13,20.13,0,0,1,.73-5.46c-8.27,8.9-16.94,16.7-25.34,15.48a8.31,8.31,0,0,1-7.15-5.69,17.82,17.82,0,0,1,0-9c-5,7.11-13.23,16.77-20.81,14.69a7.17,7.17,0,0,1-5.23-4.67c-2.18-6.28,3.31-16.9,7.35-23.42a160.15,160.15,0,0,1-15.45,12.8,37.23,37.23,0,0,1-1.42,4c-3.25,7.41-8,11.75-13,11.75a2.83,2.83,0,0,1-3-2c-.6-2.62,2.55-7.12,11-11.25a39.34,39.34,0,0,0,5-3c1.72-6.22,1.39-12.31-1.09-14.95a6.35,6.35,0,0,0-7.31-1,29.51,29.51,0,0,0-10.29,8c-4.9,16.21-15.19,48.07-21.9,51.45A3.13,3.13,0,0,1,268.32,174.19Zm20.84-49.1C278,138.33,266.66,159.67,266.5,169c0,2,.49,3.17,1.49,3.57a1.29,1.29,0,0,0,1,0C274.4,169.76,283.47,143.55,289.16,125.09Zm20.38,7.55a39.72,39.72,0,0,1-3.64,2.08c-8.11,4-10.52,8-10.16,9.53,0,.73.93.86,1.52.86,4.3,0,8.6-3.87,11.45-10.39C309,134,309.27,133.33,309.54,132.64ZM435.25,86.49c-1.13,0-3,1.55-5,5.29a95,95,0,0,0-8,35.23,148.28,148.28,0,0,0,10.92-21.14c4.9-11.67,4.43-18.39,2.58-19.28a.93.93,0,0,0-.37-.1ZM266.89,113.15h-.26a3,3,0,0,0-2.32,2,5.53,5.53,0,0,0,1.76,5.59,7.87,7.87,0,0,0,5.49,2,10.86,10.86,0,0,0-1.13-6.94A4.54,4.54,0,0,0,266.89,113.15Zm-39.1-5.36a2.88,2.88,0,0,0-1.95.73,3.31,3.31,0,0,0-.69,3.47,7.25,7.25,0,0,0,5.22,4,14.69,14.69,0,0,0,.9-4.63,3.31,3.31,0,0,0-1.62-3.31,4.52,4.52,0,0,0-1.86-.3Zm109.5-1.88a.64.64,0,0,1-.75-.51.62.62,0,0,1,.13-.52l1.58-2.28a.76.76,0,0,1,1.06-.2h0a.78.78,0,0,1,.2,1.06l-1.59,2.28a.86.86,0,0,1-.8.17ZM189.75,98.5h-.37a12.75,12.75,0,0,1-5.69-15.75c3.71-9.93,14.89-8.14,27.79-6.15,10.36,1.58,22.07,3.3,31.53-.76a.74.74,0,0,1,1,.4.72.72,0,0,1-.35,1l-.05,0c-9.92,4.3-21.8,2.48-32.35.86-12.27-1.89-22.86-3.55-26.13,5.18a11,11,0,0,0,5,14,.75.75,0,0,1,.3,1,.72.72,0,0,1-.66.23Z"/><path id="Path_377" data-name="Path 377" class="cls-9" d="M447.82,235.59H8.09a7.48,7.48,0,0,1,0-14.92H82a.76.76,0,1,1,0,1.52H8.09a6,6,0,0,0,0,11.88H447.82a6,6,0,0,0,.9-11.88,6.76,6.76,0,0,0-.9,0H164.63a.76.76,0,1,1,0-1.52H447.82a7.48,7.48,0,0,1,0,14.92Z"/><path id="Path_378" data-name="Path 378" class="cls-10" d="M152.33,228.87h-.89a10.86,10.86,0,0,1-5.23-5,6.66,6.66,0,0,1-2.08,3.31,3.87,3.87,0,0,1-3.08.76,6.62,6.62,0,0,1-4.86-4.86,5.93,5.93,0,0,1-2.75,3.3,3.08,3.08,0,0,1-3-.36c-4.37-2.84-1.86-11-1.86-11.41a.75.75,0,1,1,1.43.43s-2.19,7.47,1.22,9.59a1.67,1.67,0,0,0,1.65.27c1.53-.63,2.49-3.77,2.72-4.83a.81.81,0,0,1,.76-.6.71.71,0,0,1,.69.66s.83,5.66,4.27,6.18a2.46,2.46,0,0,0,1.95-.46,7.11,7.11,0,0,0,1.86-4.2.72.72,0,0,1,.6-.66.82.82,0,0,1,.82.43c.7,1.46,3,5.33,5.2,5.92a2,2,0,0,0,1.75-.36,4.77,4.77,0,0,0,1.89-4.57c-.5-4.27-5.36-10.42-15.12-14.55a.74.74,0,0,1-.43-.94l0-.06a.76.76,0,0,1,1-.4c9.1,3.84,15.38,9.93,16,15.78a6.17,6.17,0,0,1-2.51,6,3.64,3.64,0,0,1-2,.63Zm-58.42-2.25a3.1,3.1,0,0,1-1.69-.53c-4.33-2.74-1.59-12.7-1.46-13.23a.74.74,0,0,1,1.43.4h0c-.73,2.58-2,9.66.82,11.45a1.45,1.45,0,0,0,1.39.2c1.59-.7,2.91-4.4,3.31-6.62a.7.7,0,0,1,.76-.6.74.74,0,0,1,.7.66s.82,5.66,4.3,6.19a2.33,2.33,0,0,0,1.92-.46,7.28,7.28,0,0,0,2-4.24.75.75,0,0,1,.66-.69.76.76,0,0,1,.79.5c.63,1.72,2.19,4.56,3.61,4.86a1.79,1.79,0,0,0,1.36-.56,5.15,5.15,0,0,0,.82-4.3,18.13,18.13,0,0,0-6.88-12,.77.77,0,0,1-.28-1l0,0a.79.79,0,0,1,1.09-.27.7.7,0,0,1,.16.13,19.85,19.85,0,0,1,7.61,13.24A6.62,6.62,0,0,1,115,225.3a2.92,2.92,0,0,1-2.74,1c-1.62-.37-3-2.25-3.77-3.78a6.6,6.6,0,0,1-2,3.08,3.9,3.9,0,0,1-3,.73,6.6,6.6,0,0,1-4.83-4.73,8.42,8.42,0,0,1-3.51,5,3,3,0,0,1-1.22.06Zm222.77-21.2h-.26a.76.76,0,0,1-.43-1l13.66-36.39c.53-1.39,1.29-1.59,1.72-1.59h0c.4,0,1.19.2,1.69,1.62l8.2,22.63h0l4.93,13.63a.76.76,0,0,1-1.43.5L340,191.62H322.37l-5,13.24a.81.81,0,0,1-.73.56Zm6.26-15.22h16.54l-7.88-21.67a2.41,2.41,0,0,0-.3-.6,2,2,0,0,0-.26.6Zm57,15.22a.74.74,0,0,1-.6-.3,18.94,18.94,0,0,1-1.69-8.8,22.68,22.68,0,0,0-.76-6.19,5.39,5.39,0,0,0-5.32-3,11.85,11.85,0,0,1-1.46,0H356.91v17.47a.77.77,0,0,1-.76.73.74.74,0,0,1-.76-.7V170.09a3.6,3.6,0,0,1,3.54-3.64H370A10.26,10.26,0,0,1,380,176.87a10.45,10.45,0,0,1-5.53,9.26,6.09,6.09,0,0,1,3.58,3.31,22.15,22.15,0,0,1,.92,6.62,18.89,18.89,0,0,0,1.39,8,.76.76,0,0,1-.2,1.06h0a.73.73,0,0,1-.16.3Zm-23.16-19.69h14.43A8.9,8.9,0,0,0,370,168.07H358.8a2.07,2.07,0,0,0-2,2.11Zm-69.47,19.69h0a.76.76,0,0,1-.76-.76h0v-34.6a3.57,3.57,0,0,1,3.54-3.61h11.12a10.42,10.42,0,0,1,0,20.81H288v17.43a.76.76,0,0,1-.66.73Zm.79-19.65h13.24a8.9,8.9,0,0,0,0-17.8H290.22a2.07,2.07,0,0,0-2.05,2.11h0Zm152.74,19.65a.74.74,0,0,1-.76-.7v-17.5a2.86,2.86,0,0,1-1.32-1.16l-11.64-18.29a.79.79,0,0,1,.23-1,.75.75,0,0,1,1.05.23h0l11.67,18.33a1.15,1.15,0,0,0,.86.62h0a1.15,1.15,0,0,0,.86-.62l12-18.5a.77.77,0,0,1,1.05-.24h0a.79.79,0,0,1,.2,1.06l-12,18.49a2.85,2.85,0,0,1-1.46,1.19v17.4a.72.72,0,0,1-.72.7Zm-37.87,0a.73.73,0,0,1-.76-.7V168.11H389.89a.76.76,0,0,1-.31-1.49.55.55,0,0,1,.31,0h26.47a.75.75,0,0,1,.9.58.77.77,0,0,1-.58.91.86.86,0,0,1-.32,0H403.79v36.58a.73.73,0,0,1-.66.73ZM253,64.92h0c-.66,0-67.05-14.76-93.22-3.31a.78.78,0,0,1-.83,0c-.53-.5-13.23-12.51-15.91-23a31,31,0,0,1,3.57-21.4.78.78,0,0,1,.56-.37c44.2-4.3,85.49-3.9,106.53,47a.81.81,0,0,1,0,.8A.77.77,0,0,1,253,64.92Zm-63.68-9.23a337.21,337.21,0,0,1,62.43,7.44C231.1,14.53,192.29,14,147.57,18.24a29.7,29.7,0,0,0-3.31,19.85c2.38,9.13,13,19.85,15.12,21.93a81.18,81.18,0,0,1,30-4.33Zm50.68-1a.73.73,0,0,1-.36,0,84,84,0,0,0-40.46-9.37c-25.08,1.33-40.2,2.12-50.32-6.41a.8.8,0,0,1,0-1.1.77.77,0,0,1,1.06,0c9.66,8.14,24.58,7.38,49.29,6.06a86.08,86.08,0,0,1,41.15,9.43.71.71,0,0,1,.29,1l0,0a.72.72,0,0,1-.63.37Z"/></g></g></g></g></svg>