<svg xmlns="http://www.w3.org/2000/svg" viewBox="0 0 50 51"><defs><style>.cls-1,.cls-2{fill:none;}.cls-2{stroke:#fff;stroke-linejoin:round;}.cls-3{fill:#00c300;}</style></defs><g id="圖層_2" data-name="圖層 2"><g id="圖層_1-2" data-name="圖層 1"><g id="line"><g id="Ellipse_2" data-name="Ellipse 2"><ellipse class="cls-1" cx="25" cy="25.5" rx="25" ry="25.5"/><ellipse class="cls-2" cx="25" cy="25.5" rx="24.5" ry="25"/></g><g id="Group_351" data-name="Group 351"><path id="Path_235" data-name="Path 235" class="cls-3" d="M35.4,14.54A16.58,16.58,0,0,0,24.92,11a16.6,16.6,0,0,0-10.48,3.54A11.21,11.21,0,0,0,10,23.28a11.19,11.19,0,0,0,4,8.36,16.07,16.07,0,0,0,8.77,3.78v3.26a.88.88,0,0,0,.88.87c1.51,0,5.6-1.85,9.06-4.52A22.18,22.18,0,0,0,37.63,30a11.94,11.94,0,0,0,2.22-6.67,11.24,11.24,0,0,0-4.44-8.74ZM19.59,27h-3a.71.71,0,0,1-.8-.61V20.23c0-.38.35-.64.87-.64s.87.26.87.64v5.14h2c.37,0,.63.33.63.8s-.26.8-.63.8Zm2.8-.65c0,.38-.37.65-.87.65s-.88-.27-.88-.65V20.23c0-.38.35-.64.88-.64s.87.26.87.64Zm5.95,0c0,.38-.36.65-.87.65a1,1,0,0,1-.93-.52L25,23.6v2.71c0,.38-.37.65-.87.65s-.87-.27-.87-.65V20.24c0-.39.35-.65.87-.65s.82.18,1.14.79l1.31,2.53V20.23c0-.38.35-.64.87-.64s.87.26.87.64Zm3.8-3.78a.69.69,0,0,1,.65.73v0a.68.68,0,0,1-.62.73H31v1.36h2.39c.37,0,.64.34.64.8a.7.7,0,0,1-.6.79H30a.7.7,0,0,1-.79-.61V20.24a.71.71,0,0,1,.76-.66h3.38a.7.7,0,0,1,.64.75v0c0,.46-.27.8-.64.8H31v1.35Z"/></g></g></g></g></svg>