<svg xmlns="http://www.w3.org/2000/svg" xmlns:xlink="http://www.w3.org/1999/xlink" viewBox="0 0 51 51"><defs><style>.cls-1,.cls-2{fill:none;}.cls-2{stroke:#fff;stroke-linejoin:round;}.cls-3{fill-rule:evenodd;fill:url(#未命名漸層_3);}</style><linearGradient id="未命名漸層_3" x1="-965.58" y1="521.33" x2="-964.72" y2="520.44" gradientTransform="matrix(26.39, 0, 0, -26.39, 25492.62, 13770.2)" gradientUnits="userSpaceOnUse"><stop offset="0" stop-color="#6f88ff"/><stop offset="0.38" stop-color="#ff4695"/><stop offset="1" stop-color="#ffdc80"/></linearGradient></defs><g id="圖層_2" data-name="圖層 2"><g id="圖層_1-2" data-name="圖層 1"><g id="IG"><g id="Ellipse_2-2" data-name="Ellipse 2-2"><circle class="cls-1" cx="25.5" cy="25.5" r="25.5"/><circle class="cls-2" cx="25.5" cy="25.5" r="25"/></g><path id="Path_236" data-name="Path 236" class="cls-3" d="M25.17,14.34a38.71,38.71,0,0,1,5.27.15,6.79,6.79,0,0,1,2.48.44,5.13,5.13,0,0,1,2.49,2.48,6.85,6.85,0,0,1,.44,2.49c0,1.32.15,1.76.15,5.27a42,42,0,0,1-.15,5.26,6.81,6.81,0,0,1-.44,2.49,5.11,5.11,0,0,1-2.49,2.49,6.76,6.76,0,0,1-2.48.44c-1.32,0-1.76.14-5.27.14a40.29,40.29,0,0,1-5.27-.14,6.85,6.85,0,0,1-2.49-.44,5.13,5.13,0,0,1-2.48-2.49,6.76,6.76,0,0,1-.44-2.48c0-1.32-.15-1.76-.15-5.27a38.62,38.62,0,0,1,.15-5.27,6.85,6.85,0,0,1,.44-2.49A5.26,5.26,0,0,1,16,16a2.42,2.42,0,0,1,1.46-1,6.85,6.85,0,0,1,2.49-.44,38.62,38.62,0,0,1,5.27-.15m0-2.34a42.62,42.62,0,0,0-5.42.15,8.77,8.77,0,0,0-3.21.58,6.08,6.08,0,0,0-3.81,3.81,6.56,6.56,0,0,0-.58,3.21A42.62,42.62,0,0,0,12,25.17a42.51,42.51,0,0,0,.15,5.41,8.86,8.86,0,0,0,.58,3.22,6.16,6.16,0,0,0,3.81,3.8,8.83,8.83,0,0,0,3.22.58,40.65,40.65,0,0,0,5.41.15,40.74,40.74,0,0,0,5.41-.15,8.86,8.86,0,0,0,3.22-.58,6.18,6.18,0,0,0,3.8-3.8,8.86,8.86,0,0,0,.58-3.22c0-1.46.15-1.9.15-5.41a40.65,40.65,0,0,0-.15-5.41,8.83,8.83,0,0,0-.58-3.22,6.1,6.1,0,0,0-3.8-3.81,8.86,8.86,0,0,0-3.22-.58A42.51,42.51,0,0,0,25.17,12m0,6.44A6.62,6.62,0,0,0,18.44,25v.22a6.73,6.73,0,1,0,6.73-6.73m0,11.12a4.31,4.31,0,0,1-4.39-4.23v-.16A4.31,4.31,0,0,1,25,20.78h.16A4.32,4.32,0,0,1,29.56,25v.16a4.32,4.32,0,0,1-4.23,4.39h-.16m7-13a1.61,1.61,0,1,0,1.61,1.61h0a1.61,1.61,0,0,0-1.61-1.6"/></g></g></g></svg>