<svg xmlns="http://www.w3.org/2000/svg" viewBox="0 0 50 51"><defs><style>.cls-1,.cls-2{fill:none;}.cls-2{stroke:#fff;stroke-linejoin:round;}.cls-3{fill:#3872eb;}</style></defs><g id="圖層_2" data-name="圖層 2"><g id="圖層_1-2" data-name="圖層 1"><g id="FB"><g id="Group_596" data-name="Group 596"><g id="Ellipse_2-3" data-name="Ellipse 2-3"><ellipse class="cls-1" cx="25" cy="25.5" rx="25" ry="25.5"/><ellipse class="cls-2" cx="25" cy="25.5" rx="24.5" ry="25"/></g><path id="Subtraction_1" data-name="Subtraction 1" class="cls-3" d="M25.69,38H23A11,11,0,0,1,12,27V23A11,11,0,0,1,23,12h4A11,11,0,0,1,38,23v4a11,11,0,0,1-8.74,10.77V29.59h3l.44-3.46H29.26V24c0-.81.2-1.73,1.73-1.73h1.83V19.1l-.73,0c-.52,0-1.23-.07-2-.07a4.16,4.16,0,0,0-4.44,3.86,3.85,3.85,0,0,0,0,.68v2.6h-3V29.6h3V38Z"/></g></g></g></g></svg>