<svg xmlns="http://www.w3.org/2000/svg" viewBox="0 0 25.36 25.36"><defs><style>.cls-1{fill:#fff;fill-rule:evenodd;}</style></defs><g id="圖層_2" data-name="圖層 2"><g id="圖層_1-2" data-name="圖層 1"><path id="Path_40" data-name="Path 40" class="cls-1" d="M12.68,2.28a37.15,37.15,0,0,1,5.06.14,6.47,6.47,0,0,1,2.39.42,5,5,0,0,1,2.4,2.39A6.47,6.47,0,0,1,23,7.62c0,1.26.14,1.68.14,5.06A38.83,38.83,0,0,1,23,17.74a6.47,6.47,0,0,1-.42,2.39,5,5,0,0,1-2.39,2.39,6.55,6.55,0,0,1-2.39.42c-1.27,0-1.69.14-5.07.14a37.19,37.19,0,0,1-5.06-.14,6.47,6.47,0,0,1-2.39-.41,4.92,4.92,0,0,1-2.39-2.39,6.56,6.56,0,0,1-.43-2.39c0-1.27-.14-1.69-.14-5.06a39,39,0,0,1,.15-5.07,6.47,6.47,0,0,1,.42-2.39,4.94,4.94,0,0,1,1-1.4,2.33,2.33,0,0,1,1.4-1,6.47,6.47,0,0,1,2.39-.42,37.15,37.15,0,0,1,5.06-.14m0-2.25a39.23,39.23,0,0,0-5.2.14A8.33,8.33,0,0,0,4.39.73a5.49,5.49,0,0,0-2.25,1.4A5.41,5.41,0,0,0,.73,4.39,6.33,6.33,0,0,0,.17,7.48,39.27,39.27,0,0,0,0,12.68a39.23,39.23,0,0,0,.14,5.2A8.42,8.42,0,0,0,.73,21a5.54,5.54,0,0,0,1.41,2.25,5.39,5.39,0,0,0,2.25,1.4,8.55,8.55,0,0,0,3.09.57,43,43,0,0,0,5.2.14,43,43,0,0,0,5.2-.14A8.59,8.59,0,0,0,21,24.63,5.9,5.9,0,0,0,24.63,21a8.86,8.86,0,0,0,.56-3.1c0-1.4.14-1.82.14-5.2a41.06,41.06,0,0,0-.14-5.2,8.84,8.84,0,0,0-.56-3.09,5.49,5.49,0,0,0-1.4-2.25A5.54,5.54,0,0,0,21,.73a8.42,8.42,0,0,0-3.1-.56A41,41,0,0,0,12.68,0m0,6.18a6.38,6.38,0,0,0-6.47,6.26v.21a6.47,6.47,0,1,0,6.47-6.47m0,10.69a4.15,4.15,0,0,1-4.22-4.06v-.16a4.15,4.15,0,0,1,4.07-4.22h.15a4.14,4.14,0,0,1,4.22,4.07v.15a4.14,4.14,0,0,1-4.06,4.22h-.16M19.43,4.39A1.55,1.55,0,1,0,21,5.93a1.54,1.54,0,0,0-1.55-1.54"/></g></g></svg>