<svg xmlns="http://www.w3.org/2000/svg" viewBox="0 0 415.45 111.92"><defs><style>.cls-1{fill:none;stroke:#fed6a2;stroke-width:3px;}</style></defs><g id="圖層_2" data-name="圖層 2"><g id="圖層_1-2" data-name="圖層 1"><path id="Path_353-2" data-name="Path 353-2" class="cls-1" d="M1.52,106.16V5.67A2,2,0,0,1,3.22,3.4a1.82,1.82,0,0,1,.57,0A2,2,0,0,1,6.06,5.1a1.82,1.82,0,0,1,0,.57v96A2,2,0,0,0,7.7,104a1.75,1.75,0,0,0,.56,0h8.28a2,2,0,0,0,2.27-1.7,2.72,2.72,0,0,0,0-.57v-96a2,2,0,0,1,1.63-2.26,2.18,2.18,0,0,1,.57,0h2a2.52,2.52,0,0,1,2.56,1.69L52.86,59.51c.49,1.07,1,1.52,1.69,1.35s1-.82,1-1.94V5.67A2,2,0,0,1,57.2,3.4a1.82,1.82,0,0,1,.57,0H75.06a2,2,0,0,1,2.21,1.71,2.09,2.09,0,0,1,0,.56V106.16a2,2,0,0,1-1.64,2.26,1.76,1.76,0,0,1-.56,0H55.87a2.51,2.51,0,0,1-2.57-1.68L28.4,57.31a7.38,7.38,0,0,1-.58-2.86V52.91c0-1.12.31-1.77.95-1.94s1.19.29,1.68,1.36l25.05,50A2.5,2.5,0,0,0,58.06,104H70.51a2,2,0,0,0,2.28-1.7,2.72,2.72,0,0,0,0-.57V10.21a2,2,0,0,0-1.71-2.27,2.71,2.71,0,0,0-.57,0h-8.2A2,2,0,0,0,60,9.65a2.62,2.62,0,0,0,0,.56V76.94c0,1.12-.31,1.77-.95,1.94s-1.22-.28-1.76-1.36L26,14.83c-.54-1.07-1.13-1.52-1.76-1.35s-.95.81-.95,1.94v90.74a2,2,0,0,1-1.71,2.27,1.82,1.82,0,0,1-.57,0H3.79a2,2,0,0,1-2.27-1.7A1.82,1.82,0,0,1,1.52,106.16Zm115.47,0V72a2,2,0,0,1,1.71-2.21,2.18,2.18,0,0,1,.57,0,2,2,0,0,1,2.26,1.64,2.09,2.09,0,0,1,0,.56v29.73a2,2,0,0,0,1.63,2.27,1.82,1.82,0,0,0,.57,0h44.31a2,2,0,0,0,2.21-1.7,2.18,2.18,0,0,0,0-.57V93a2,2,0,0,0-1.64-2.26,1.75,1.75,0,0,0-.56,0H136.48a1.94,1.94,0,0,1-2.2-1.65,1.69,1.69,0,0,1,0-.55v-21a2,2,0,0,0-1.71-2.27,1.75,1.75,0,0,0-.56,0H119.26a2,2,0,0,1-2.27-1.7,2.72,2.72,0,0,1,0-.57V5.67A2,2,0,0,1,118.7,3.4a1.75,1.75,0,0,1,.56,0h53.25a2,2,0,0,1,2.28,1.7,2.71,2.71,0,0,1,0,.57V23.25a2,2,0,0,1-1.71,2.21,2.18,2.18,0,0,1-.57,0H141a2,2,0,0,0-2.27,1.7,1.82,1.82,0,0,0,0,.57V42a2,2,0,0,0,1.71,2.21,1.76,1.76,0,0,0,.56,0H163.5a2,2,0,0,1,2.27,1.71,1.75,1.75,0,0,1,0,.56V63a2,2,0,0,1-1.7,2.27,1.82,1.82,0,0,1-.57,0h-18a2,2,0,0,1-2.21-1.7,1.82,1.82,0,0,1,0-.57,1.94,1.94,0,0,1,1.64-2.2,2.62,2.62,0,0,1,.56,0H159a2,2,0,0,0,2.2-1.71,1.75,1.75,0,0,0,0-.56V51a2,2,0,0,0-1.64-2.26,2.11,2.11,0,0,0-.56,0H136.48A2,2,0,0,1,134.27,47a1.75,1.75,0,0,1,0-.56V23.25A2,2,0,0,1,135.91,21a2.18,2.18,0,0,1,.57,0H168a2,2,0,0,0,2.21-1.71,1.75,1.75,0,0,0,0-.56v-8.5A2,2,0,0,0,168.61,8a1.82,1.82,0,0,0-.57,0H123.73a2,2,0,0,0-2.21,1.71,2.11,2.11,0,0,0,0,.56V58.48a2,2,0,0,0,1.64,2.26,2.11,2.11,0,0,0,.56,0h12.75a2,2,0,0,1,2.26,1.64,2.09,2.09,0,0,1,0,.56V84a2,2,0,0,0,1.7,2.27,1.82,1.82,0,0,0,.57,0h31.49a2,2,0,0,1,2.28,1.7,2.71,2.71,0,0,1,0,.57v17.65a2,2,0,0,1-1.71,2.27,1.82,1.82,0,0,1-.57,0H119.26a2,2,0,0,1-2.27-1.7A2.71,2.71,0,0,1,117,106.16ZM210.42,5.82a3.61,3.61,0,0,1-.07-.73c0-1.13.73-1.69,2.2-1.69h17.06a2.35,2.35,0,0,1,2.57,2L240.45,49a2.27,2.27,0,0,0,.81,1.5.89.89,0,0,0,1.13,0,2.36,2.36,0,0,0,.77-1.5l8.35-43.65a2.35,2.35,0,0,1,2.56-2,2,2,0,0,1,1.65.66,2,2,0,0,1,.33,1.76L243.16,72.4a2.38,2.38,0,0,1-.77,1.5.89.89,0,0,1-1.13,0,2.29,2.29,0,0,1-.81-1.5L228.59,9.85A2.33,2.33,0,0,0,226,8H218c-1.76,0-2.47.8-2.13,2.41L233.42,102a2.33,2.33,0,0,0,2.57,2h11.79a2.35,2.35,0,0,0,2.56-2L268.8,5.38a2.33,2.33,0,0,1,2.56-2h1.76a2.35,2.35,0,0,1,2.56,2L284,49a2.26,2.26,0,0,0,.8,1.5.9.9,0,0,0,1.14,0,2.4,2.4,0,0,0,.77-1.5L295,5.38a2.34,2.34,0,0,1,2.56-2h17.14c1.42,0,2.12.56,2.12,1.69a3.61,3.61,0,0,1-.07.73L297.43,106.45a2.34,2.34,0,0,1-2.56,2h-19a2.35,2.35,0,0,1-2.57-2l-7-37.35a4.11,4.11,0,0,1,0-2.64l.59-3.51a2.13,2.13,0,0,1,.81-1.43.89.89,0,0,1,1.13,0,2.26,2.26,0,0,1,.77,1.43l7.4,39a2.29,2.29,0,0,0,2.49,2h11.87a2.35,2.35,0,0,0,2.56-2l17.58-91.62c.34-1.61-.37-2.42-2.13-2.42h-8.13a2.29,2.29,0,0,0-2.49,1.9l-12,62.56a2.43,2.43,0,0,1-.77,1.5.9.9,0,0,1-1.14,0,2.28,2.28,0,0,1-.8-1.5L273.63,18.12a2.25,2.25,0,0,0-.81-1.5.92.92,0,0,0-1.13,0,2.38,2.38,0,0,0-.77,1.5l-17,88.33a2.35,2.35,0,0,1-2.57,2h-19a2.31,2.31,0,0,1-2.49-2ZM354.68,80.67a2,2,0,0,1,1.7-2.27,1.82,1.82,0,0,1,.57,0h17.36c1.51,0,2.27.37,2.27,1.1v1.17a7.35,7.35,0,0,0,2.31,5.42,7.59,7.59,0,0,0,5.53,2.27,7.25,7.25,0,0,0,5.38-2.27A7.44,7.44,0,0,0,392,80.67a8.77,8.77,0,0,0-1-4,16.47,16.47,0,0,0-3.41-4.29c-1.61-1.54-3-2.78-4.21-3.73s-3.06-2.38-5.6-4.29l-.95-.73-1.61-1.25c-1.23-1.07-1.32-2.12-.3-3.15l1.47-1.61,7-7.1c1-1,.93-2.07-.29-3.15a48.39,48.39,0,0,1-8.24-8.13,13,13,0,0,1-2.82-8,11.58,11.58,0,0,1,3.62-8.61A12,12,0,0,1,384.42,19a11.41,11.41,0,0,1,6.88,2.23A12.79,12.79,0,0,1,395.77,27a2.46,2.46,0,0,0,2.42,2h8.72a2.23,2.23,0,0,0,1.72-.66,1.9,1.9,0,0,0,.4-1.76,24.51,24.51,0,0,0-8.61-14.68,24.85,24.85,0,0,0-33.8,1.53,24.34,24.34,0,0,0-7.4,17.76q0,11.65,11.94,22.05,1.83,1.55.22,3.15l-.22.15a2,2,0,0,1-2.81.34,2.19,2.19,0,0,1-.34-.34,58.45,58.45,0,0,1-5.49-5.64q-7.84-9.16-7.84-19.7a28.5,28.5,0,0,1,8.75-21,28.73,28.73,0,0,1,21-8.72,28.36,28.36,0,0,1,20.83,8.72,28.58,28.58,0,0,1,8.68,21,2,2,0,0,1-1.71,2.26,1.75,1.75,0,0,1-.56,0H394.3c-1.51,0-2.27-.39-2.27-1.17v-1.1a7.63,7.63,0,0,0-7.61-7.62,7.67,7.67,0,0,0-5.53,2.24,7.17,7.17,0,0,0-2.31,5.38,10.11,10.11,0,0,0,3,6.81,63.87,63.87,0,0,0,8.9,7.77l2.41,1.83c.78.63.64,1.41-.44,2.34l-1.68,1.69-6.89,7c-1.17,1.17-1.68,1.83-1.54,2l.15.15q3.38,2.49,5,3.73c1.07.83,2.47,2,4.18,3.55a27.37,27.37,0,0,1,3.77,4,21.85,21.85,0,0,1,2.2,4,12.11,12.11,0,0,1-11.17,16.81,11.88,11.88,0,0,1-7-2.23,12.73,12.73,0,0,1-4.55-5.75,2.42,2.42,0,0,0-2.41-1.9h-8.72a2.12,2.12,0,0,0-1.68.66,1.93,1.93,0,0,0-.37,1.76,24.1,24.1,0,0,0,8.61,14.53,24.47,24.47,0,0,0,16.15,5.83,25.15,25.15,0,0,0,25.05-25,22.65,22.65,0,0,0-4.07-13.15,57.1,57.1,0,0,0-11.1-11.61q-1.83-1.61-.29-3.15l.14-.14a2,2,0,0,1,2.89-.38,1.94,1.94,0,0,1,.26.23,75.52,75.52,0,0,1,8.86,8.57q7.77,9.09,7.77,19.63a28.72,28.72,0,0,1-8.68,21,28.31,28.31,0,0,1-20.84,8.76,29.89,29.89,0,0,1-29.73-29.75Z"/></g></g></svg>