<svg id="圖層_1" data-name="圖層 1" xmlns="http://www.w3.org/2000/svg" xmlns:xlink="http://www.w3.org/1999/xlink" viewBox="0 0 1920 831.17"><defs><style>.cls-1{fill:none;}.cls-2{clip-path:url(#clip-path);}.cls-3{fill:url(#未命名漸層_2);}.cls-4{clip-path:url(#clip-path-2);}.cls-5{fill:url(#未命名漸層_2-2);}</style><clipPath id="clip-path"><rect class="cls-1" x="-75.05" y="15.04" width="2255" height="322"/></clipPath><linearGradient id="未命名漸層_2" x1="278.38" y1="879.15" x2="278.38" y2="878.67" gradientTransform="matrix(5062.24, 0, 0, -578, -1408320.93, 508152.31)" gradientUnits="userSpaceOnUse"><stop offset="0" stop-color="#695dfb"/><stop offset="1" stop-color="#337ece" stop-opacity="0"/></linearGradient><clipPath id="clip-path-2"><rect class="cls-1" x="-75.05" y="494.34" width="2255" height="322"/></clipPath><linearGradient id="未命名漸層_2-2" x1="278.38" y1="879.26" x2="278.38" y2="879.74" gradientTransform="matrix(5062.24, 0, 0, -578, -1408332.93, 509041.31)" xlink:href="#未命名漸層_2"/></defs><g class="cls-2"><g id="Mask_Group_20" data-name="Mask Group 20"><g id="圖層_2" data-name="圖層 2"><g id="圖層_1-2" data-name="圖層 1"><path id="Path_345" data-name="Path 345" class="cls-3" d="M3416.6-287l1.25,3.76-447,148.27H3020v4h-61.12L2721.44-52.2h31.26v4h-43.2L2516.25,15.85h96.5v4H2504.33L2316.75,82h223v4H2304.81l-151.47,50.24h322.28v4H2141.39l-143,47.43h420.5v4H1986.45l-113.59,37.67h495.52v4H1860.92l-98.48,32.69H1790v4H1750.5l-51.78,17.21h50.5v4H168.81v-4h7L121,269.87H67.79v-4h40.55L4.06,233.22H-227v-4H-8.58l-120.29-37.67H-277.56v-4h136.05L-292.93,140.2h-41.35v-4h28.71L-465.94,86h-65.5V82h52.9L-677.17,19.81h-48.48v-4h35.82L-894-48.1h-37.68v-4h25L-1158.47-131h-34.73v-4h22.07L-1644.4-283.18l1.18-3.78,485.34,152.06h282.54L-1283-283.22l1.35-3.72,417.85,152h284.16l-342-148.33,1.59-3.63,350.38,152h285.77L-560.24-283.34l1.88-3.48,282.84,151.89H11.78L-199-283.46l2.28-3.23L18.64-134.93H307.37L162.28-283.69l2.84-2.77,147.8,151.53H602.84L523.45-284.15,527-286l80.36,151.07H898l-13.3-150,4-.35L902-134.93h290.83l53.49-150.81,3.73,1.33-53,149.48h290.3l120.83-151.42,3.1,2.48L1492.4-135h289.25L1970-286.67l2.48,3.09L1788-134.93h287.9l255.82-151.85,2,3.4L2083.64-134.93H2370l323.35-151.93,1.68,3.58L2379.32-134.93h284.81l390.85-152,1.44,3.69-381.36,148.3h283.18ZM2697-48.24H2452.21L2287.43,15.84h216.34ZM627.52,187.63H774.43L749.2,140.2H581.26Zm-51.8-47.43H409l67.32,47.43H622Zm203.21,47.43h147.7l-4.21-47.43H753.72Zm151.67,0h147.84l16.82-47.43H926.4Zm152.07,0H1230l37.85-47.43H1099.47Zm152.36,0h146.24l58.88-47.43H1272.86Zm152.55,0h144.89l79.92-47.43h-166Zm-4.92,4-46.8,37.67h126.43l63.48-37.69Zm-6.33,0H1231.85l-30.1,37.68h127.77Zm-149.55,0H1081.24l-13.37,37.67H1196.7Zm-149.74,0H931l3.34,37.67h129.38Zm-150.07,0H781l20,37.67H930.32Zm-150.42,0H631.39l36.75,37.67H796.6Zm-150.69,0h-144l53.46,37.67H662.6Zm-150.85,0H332.49l70.14,37.67H528.47Zm-5.62-4L402.07,140.2H236.76l88.32,47.43Zm-72.91-51.39L325.2,86H135.83l93.56,50.24Zm6.87,0H571.87L522.86,86H332.07Zm174,0H747.1L720.37,86h-192Zm174.19,0H922.06L917.61,86H724.85Zm174.46,0h170.63L1114.49,86H921.59Zm174.83,0H1271L1311,86H1118.69Zm175.15,0h169L1507.41,86h-191.3Zm175.34,0H1619L1703.68,86h-190Zm175.43,0H1793L1899.89,86H1711.43Zm-6.67,4-79.92,47.43h143.36L1784.5,140.2Zm-86.58,51.39-63.49,37.67H1595l80.2-37.69Zm-70.16,41.63-55,32.67H1517l69.52-32.67Zm-7.76,0H1330.94l-40.55,32.67h110.2Zm-131,0h-126l-26.07,32.67h111.54Zm-131.08,0H1066.47l-11.58,32.69h112.59Zm-131.28,0H934.64l2.9,32.67h113.14Zm-131.6,0H803.15l17.38,32.67h113Zm-132,0H672l31.87,32.67H816.07Zm-132.27,0H541l46.35,32.67h111Zm-132.38,0H410l60.83,32.67h109.6Zm-132.43,0H279.08l75.31,32.67H462.46Zm-7.36-4L324.1,191.58h-141l86.8,37.68Zm-77.54-41.64L228.4,140.18H64.59L174,187.62ZM221,136.22,127.47,86H-60.36L55.47,136.22ZM120.1,82,4.23,19.79H-212.94L-69.5,82Zm8.37,0H319.59L231.31,19.79H12.6Zm198,0H519L458.33,19.79H238.18Zm198.08,0H718.28l-33.1-62.23H463.84Zm198.22,0H917.29l-5.55-62.23h-222Zm198.5,0h194.65l22-62.21H915.73Zm198.85,0h194.11l49.66-62.23H1142.17Zm199.18,0h193l77.25-62.23H1368.93Zm199.36,0h191.71l104.78-62.21H1595.88Zm199.47,0h190.21l132.41-62.23H1823Zm199.52,0h188.63l160-62.23H2050Zm-8.43,4L1802.3,136.22h164.59L2096.08,86Zm-115.34,54.2-100.94,47.44h141.81l122-47.44Zm-109.42,51.41-80.16,37.67h123.34l96.9-37.68Zm-88.6,41.63-69.51,32.67h107.1l84-32.67Zm-77.94,36.63-36.57,17.23h97.77l44.19-17.19Zm-9.31,0h-106.9l-29,17.23H1472Zm-114.7,0H1285.47l-21.32,17.23H1365Zm-114.75,0H1169.38l-13.71,17.23h102.17Zm-114.84,0H1053.48l-6.09,17.23h103.25Zm-115,0H937.88l1.53,17.23h103.76Zm-115.36,0H822.67l9.15,17.23H935.44Zm-115.72,0H707.73l16.76,17.23H827.33Zm-116,0H592.9l24.4,17.23H719Zm-116.15,0H478.22l32,17.23H610.44Zm-116.22,0H363.52L403.12,287h98.69Zm-116.26,0H248.87l47.23,17.23h97.09Zm-9.13-4-75.32-32.67H148.18L238,265.89ZM260,229.26l-86.88-37.68H33.72L137.3,229.26Zm-96-41.64L54.63,140.18H-107.56L22.8,187.63ZM45.51,136.22-70.32,86H-256.54l138.1,50.24ZM-79.44,82-222.9,19.81H-438.46L-267.38,82ZM-232,15.85l-147.47-64H-625.15l175.83,64Zm10,0H-3.15l-119.13-64H-369.55Zm227.31,0H225.7l-90.78-64H-113.91Zm227.31,0H454.46L392-48.15H141.75Zm227.41,0H683L649-48.16H397.53Zm227.56,0H911.38l-5.68-64H653.48Zm227.83,0h224l22.71-64H909.69Zm228.2,0H1367l51.11-64H1166.27Zm228.53,0h222.39l79.51-64H1423.19Zm228.7,0h221l107.93-64.06H1680.27Zm228.8,0h219.56l136.35-64.08h-248Zm228.9,0h218l164.79-64.08H2194.82Zm433.28,4H2277.18L2117.19,82h187ZM2292.24,86H2107l-129.2,50.24h163Zm-163.41,54.2H1967.62l-122,47.43h140.18Zm-154.94,51.39H1835.46l-96.9,37.67h121.73Zm-125.55,41.63h-120l-84,32.69h105.47Zm-110.42,36.65H1634.17L1590,287.08h96.1ZM189.08,287.08h95.44l-47.24-17.19H134.22Zm-67.5-21.15H226.39L136.6,233.22H17.3ZM4.67,229.26H125.72L22.14,191.57H-115.62Zm-132.93-41.65H11.25l-130.38-47.43H-279.67Zm-164.06-51.39H-130L-268.15,86H-452.7Zm-173-54.2H-279L-450,19.81H-663.95ZM-676.6,15.84h215.67l-175.83-64h-244ZM-1145.24-131-893.38-52h245.75L-864.48-131Zm292.34,0L-636-52.06h247.4L-570.49-131Zm292.36,0,181.87,78.89h249l-146.87-78.88Zm292.39,0,146.87,78.87H129.28L17.4-131Zm292.42,0L136.16-52.09h252L311.25-131Zm292.51,0L393.7-52.1H646.9l-42-78.85Zm292.65,0,42,78.84h254l-7-78.84Zm292.92,0,7,78.83h254.13l28-78.83Zm293.3,0-28,78.83h253.6l62.89-78.82Zm293.6,0-62.9,78.81h252.57L1776.74-131Zm293.84,0-97.84,78.8h251.23L2069.22-131Zm293.9,0-132.75,78.8H2194l167.65-78.79Zm294,0-167.7,78.78h248.15L2654-131Zm294,0L2462.37-52.19h246.49L2946.3-131Z"/></g></g></g></g><g class="cls-4"><g id="Mask_Group_30" data-name="Mask Group 30"><g id="圖層_2-2" data-name="圖層 2-2"><g id="圖層_1-2-2" data-name="圖層 1-2"><path id="Path_6156" data-name="Path 6156" class="cls-5" d="M3416.6,1118.33l1.25-3.76-447-148.27H3020v-4h-61.12l-237.44-78.77h31.26v-4h-43.2l-193.25-64.09h96.5v-4H2504.33l-187.58-62.22h223v-4H2304.81l-151.47-50.24h322.28v-4H2141.39l-143-47.44h420.5v-4H1986.45l-113.59-37.67h495.52v-4H1860.92l-98.48-32.68H1790v-4H1750.5l-51.78-17.21h50.5v-4H168.81v4h7L121,561.51H67.79v4h40.55L4.06,598.15H-227v4H-8.58l-120.29,37.67H-277.56v4h136.05l-151.42,47.44h-41.35v4h28.71l-160.37,50.23h-65.5v4h52.9l-198.63,62.22h-48.48v4h35.82l-204.13,64h-37.68v4h25l-251.86,78.91h-34.73v4h22.07l-473.27,148.25,1.18,3.79,485.34-152.07h282.54L-1283,1114.59l1.35,3.72,417.85-152h284.16l-342,148.34,1.59,3.62,350.38-152h285.77l-276.38,148.41,1.88,3.48L-275.52,966.3H11.78L-199,1114.84l2.28,3.23L18.64,966.3H307.37L162.28,1115.07l2.84,2.76L312.92,966.3H602.84l-79.39,149.22,3.5,1.86L607.32,966.3H898l-13.3,150,4,.35L902,966.3h290.84l53.48,150.82,3.73-1.33L1197,966.3h290.3l120.83,151.42,3.1-2.47L1492.4,966.35h289.25L1970,1118.05l2.48-3.09L1788,966.3h287.9l255.82,151.85,2-3.4L2083.64,966.3H2370l323.35,151.94,1.68-3.58L2379.32,966.3h284.81l390.85,152,1.44-3.69L2675.06,966.3h283.18ZM2697,879.61H2452.21l-164.78-64.07h216.34ZM627.52,643.74H774.43L749.2,691.18H581.26Zm-51.8,47.44H409l67.32-47.44H622Zm203.21-47.44h147.7l-4.21,47.44H753.72Zm151.67,0h147.84l16.82,47.44H926.4Zm152.07,0H1230l37.85,47.44H1099.47Zm152.36,0h146.24l58.88,47.44H1272.86Zm152.55,0h144.89l79.92,47.44h-166Zm-4.92-4-46.8-37.67h126.43l63.48,37.69Zm-6.33,0H1231.85l-30.1-37.68h127.77Zm-149.55,0H1081.24l-13.37-37.67H1196.7Zm-149.74,0H931l3.34-37.67h129.38Zm-150.07,0H781l20-37.67H930.32Zm-150.42,0H631.39l36.75-37.67H796.6Zm-150.69,0h-144l53.46-37.67H662.6Zm-150.85,0H332.49l70.14-37.67H528.47Zm-5.62,4-67.32,47.44H236.76l88.32-47.44Zm-72.91,51.4L325.2,745.37H135.83l93.56-50.23Zm6.87,0H571.87l-49,50.23H332.07Zm174,0H747.1l-26.73,50.23h-192Zm174.19,0H922.06l-4.45,50.23H724.85Zm174.46,0h170.63l17.82,50.23H921.59Zm174.83,0H1271L1311,745.37H1118.69Zm175.15,0h169l62.37,50.23h-191.3Zm175.34,0H1619l84.65,50.23h-190Zm175.43,0H1793l106.92,50.23H1711.43Zm-6.67-4-79.92-47.44h143.36l100.94,47.44Zm-86.58-51.4-63.49-37.67H1595l80.2,37.69Zm-70.16-41.63-55-32.67H1517l69.52,32.67Zm-7.76,0H1330.94l-40.55-32.67h110.2Zm-131,0h-126l-26.07-32.67h111.54Zm-131.08,0H1066.47l-11.58-32.68h112.59Zm-131.28,0H934.64l2.9-32.67h113.14Zm-131.6,0H803.15l17.38-32.67h113Zm-132,0H672l31.87-32.67H816.07Zm-132.27,0H541l46.35-32.67h111Zm-132.38,0H410l60.83-32.67h109.6Zm-132.43,0H279.08l75.31-32.67H462.46Zm-7.36,4L324.1,639.8h-141l86.8-37.69Zm-77.54,41.65L228.4,691.19H64.59L174,643.76ZM221,695.15l-93.56,50.24H-60.36L55.47,695.15ZM120.1,749.35,4.23,811.58H-212.94L-69.5,749.35Zm8.37,0H319.59l-88.28,62.23H12.6Zm198,0H519l-60.69,62.23H238.18Zm198.08,0H718.28l-33.1,62.23H463.84Zm198.22,0H917.29l-5.55,62.23h-222Zm198.5,0h194.65l22,62.21H915.73Zm198.85,0h194.11l49.66,62.23H1142.17Zm199.18,0h193l77.25,62.23H1368.93Zm199.36,0h191.71l104.78,62.21H1595.88Zm199.47,0h190.21l132.41,62.23H1823Zm199.52,0h188.63l160,62.23H2050Zm-8.43-4L1802.3,695.15h164.59l129.19,50.24Zm-115.34-54.2-100.94-47.43h141.81l122,47.43Zm-109.42-51.41-80.16-37.67h123.34l96.9,37.69Zm-88.6-41.63-69.51-32.67h107.1l84,32.67Zm-77.94-36.63-36.57-17.22h97.77l44.2,17.18Zm-9.31,0h-106.9l-29-17.22H1472Zm-114.69,0H1285.47l-21.32-17.22H1365Zm-114.76,0H1169.38l-13.71-17.22h102.17Zm-114.84,0H1053.48l-6.09-17.22h103.25Zm-115,0H937.89l1.53-17.22h103.75Zm-115.37,0H822.67l9.15-17.22H935.44Zm-115.72,0H707.73l16.76-17.22H827.33Zm-116,0H592.9l24.4-17.22H719Zm-116.14,0H478.22l32-17.22H610.44Zm-116.22,0H363.52l39.6-17.18h98.69Zm-116.26,0H248.88L296.1,544.3h97.09Zm-9.14,4-75.32,32.67H148.18L238,565.48ZM260,602.11,173.12,639.8H33.72L137.3,602.11Zm-96,41.65L54.64,691.19H-107.55L22.81,643.74ZM45.51,695.15-70.32,745.39H-256.54l138.1-50.24ZM-79.44,749.34-222.9,811.56H-438.46l171.08-62.22ZM-232,815.53l-147.47,64H-625.15l175.83-64Zm10,0H-3.15l-119.13,64H-369.55Zm227.31,0H225.7l-90.78,64H-113.91Zm227.31,0H454.46l-62.43,64H141.75Zm227.41,0H683l-34.06,64H397.53Zm227.56,0H911.38l-5.68,64H653.48Zm227.83,0h224l22.71,64H909.69Zm228.2,0H1367l51.11,64H1166.27Zm228.53,0h222.39L1674,879.58H1423.19Zm228.7,0h221l107.93,64.05H1680.27Zm228.8,0h219.56l136.35,64.07h-248Zm228.9,0h218l164.79,64.08H2194.82Zm433.28-4H2277.18l-160-62.23h187Zm-199.52-66.19H2107l-129.2-50.24h163Zm-163.41-54.2H1967.62l-122-47.44h140.18Zm-154.94-51.4H1835.46l-96.9-37.67h121.73Zm-125.55-41.63h-120l-84-32.68h105.47Zm-110.42-36.64H1634.17L1590,544.3h96.1ZM189.08,544.3h95.44l-47.24,17.18H134.22Zm-67.5,21.14H226.39L136.6,598.15H17.3ZM4.67,602.11H125.72L22.14,639.8H-115.62Zm-132.93,41.65H11.25l-130.38,47.43H-279.67Zm-164.06,51.39H-130l-138.1,50.24H-452.7Zm-173,54.2H-279l-171,62.22H-663.95ZM-676.6,815.54h215.67l-175.83,64h-244Zm-468.64,146.8,251.86-78.91h245.75l-216.85,78.91Zm292.34,0L-636,883.44h247.4l-181.87,78.9Zm292.36,0,181.87-78.9h249l-146.87,78.88Zm292.39,0,146.87-78.88H129.28L17.4,962.34Zm292.42,0,111.89-78.87h252l-76.91,78.87Zm292.51,0,76.92-78.86H646.9l-42,78.84Zm292.65,0,42-78.85h254l-7,78.85Zm292.92,0,7-78.84h254.13l28,78.84Zm293.3,0-28-78.83h253.6l62.89,78.81Zm293.6,0-62.9-78.82h252.57l97.82,78.82Zm293.84,0-97.84-78.8h251.23l132.74,78.8Zm293.9,0-132.75-78.8H2194l167.65,78.78Zm294,0-167.7-78.79h248.15L2654,962.34Zm294,0-202.55-78.77h246.49l237.44,78.77Z"/></g></g></g></g></svg>