<svg xmlns="http://www.w3.org/2000/svg" xmlns:xlink="http://www.w3.org/1999/xlink" viewBox="0 0 5062.24 578"><defs><style>.cls-1{fill:none;}.cls-2{clip-path:url(#clip-path);}.cls-3{fill:url(#未命名漸層_2);}</style><clipPath id="clip-path" transform="translate(1569.34 302)"><rect class="cls-1" width="2255" height="322"/></clipPath><linearGradient id="未命名漸層_2" x1="353.43" y1="824.64" x2="353.43" y2="824.16" gradientTransform="matrix(5062.24, 0, 0, -578, -1788178.61, 476627.41)" gradientUnits="userSpaceOnUse"><stop offset="0" stop-color="#695dfb"/><stop offset="1" stop-color="#337ece" stop-opacity="0"/></linearGradient></defs><g id="圖層_2" data-name="圖層 2"><g id="圖層_1-2" data-name="圖層 1"><g class="cls-2"><g id="Mask_Group_20" data-name="Mask Group 20"><g id="圖層_2-2" data-name="圖層 2"><g id="圖層_1-3" data-name="圖層 1"><path id="Path_345" data-name="Path 345" class="cls-3" d="M3491.66-302l1.24,3.75L3045.87-150h49.19v4h-61.12L2796.49-67.23h31.26v4h-43.2L2591.3.82h96.51v4H2579.39L2391.8,67h223v4H2379.86L2228.39,121.2h322.28v4H2216.44l-143,47.43H2494v4H2061.5l-113.59,37.67h495.52v4H1936l-98.48,32.69h27.6v4h-39.53L1773.77,272h50.5v4H243.87v-4h7l-54.82-17.21H142.84v-4H183.4L79.11,218.18H-152v-4H66.47L-53.81,176.55h-148.7v-4H-66.45l-151.42-47.43h-41.35v-4h28.71L-390.89,71h-65.5V67h52.9L-602.11,4.77H-650.6v-4h35.82L-818.91-63.13h-37.68v-4h25L-1083.42-146h-34.72v-4h22.06l-473.26-148.25,1.18-3.79,485.33,152.07h282.54l-407.64-148.32,1.36-3.73,417.84,152h284.16l-342-148.34,1.59-3.63,350.38,152H-208.8L-485.19-298.37l1.88-3.49L-200.47-150H86.83L-123.91-298.5l2.28-3.23L93.69-150H382.42L237.33-298.73l2.84-2.76L388-150H677.9L598.5-299.19,602-301,682.37-150H973l-13.3-150,4-.35L977-150h290.84l53.49-150.82,3.73,1.33-53,149.49h290.3L1683.2-301.38l3.1,2.47L1567.46-150H1856.7L2045-301.71l2.48,3.09L1863-150h287.9l255.82-151.86,2,3.41L2158.69-150h286.4L2768.44-301.9l1.68,3.58L2454.38-150h284.81L3130-302l1.44,3.69L2750.12-150H3033.3ZM2772-63.28H2527.27L2362.49.8h216.33ZM702.57,172.59H849.48l-25.23-47.43H656.31Zm-51.8-47.43H484l67.32,47.43H697.08ZM854,172.59h147.7l-4.21-47.43H828.77Zm151.67,0h147.84l16.82-47.43H1001.45Zm152.07,0H1305l37.85-47.43H1174.52Zm152.36,0h146.24l58.88-47.43H1347.91Zm152.55,0h144.9l79.91-47.43h-166Zm-4.91,4-46.8,37.67h126.42l63.48-37.68Zm-6.34,0H1306.9l-30.1,37.69h127.78Zm-149.55,0H1156.29l-13.36,37.67h128.83Zm-149.74,0H1006l3.35,37.67h129.37Zm-150.06,0H856.09l20,37.67h129.23Zm-150.43,0H706.44l36.75,37.67H871.66Zm-150.69,0h-144l53.46,37.67H737.66Zm-150.85,0H407.54l70.14,37.67H603.52Zm-5.61-4-67.33-47.43H311.81l88.32,47.43ZM471.53,121.2,400.25,71H210.89l93.55,50.24Zm6.87,0H646.92L597.91,71H407.13Zm174.05,0H822.16L795.43,71h-192Zm174.18,0H997.12L992.67,71H799.9Zm174.46,0h170.63L1189.54,71H996.64Zm174.83,0H1346L1386.09,71H1193.74Zm175.15,0h169L1582.46,71h-191.3Zm175.34,0h167.68L1778.73,71h-190Zm175.43,0H1868L1974.94,71H1786.48Zm-6.67,4-79.91,47.43h143.35l101-47.43Zm-86.58,51.39-63.49,37.67H1670l80.19-37.68Zm-70.16,41.63-55,32.67h108.7l69.52-32.67Zm-7.76,0H1406l-40.55,32.67h110.19Zm-131,0h-126l-26.08,32.67h111.54Zm-131.08,0H1141.52l-11.58,32.69h112.59Zm-131.28,0H1009.69l2.9,32.67h113.14Zm-131.6,0H878.2l17.38,32.67h113Zm-132,0H747l31.86,32.67H891.12Zm-132.26,0H616l46.34,32.67h111Zm-132.39,0h-124l60.82,32.67H655.49Zm-132.43,0H354.13l75.31,32.67H537.51Zm-7.36-4-70.17-37.68h-141L345,214.22Zm-77.54-41.64-88.33-47.43H139.65L249,172.58Zm-95.7-51.4L202.53,71H14.7l115.82,50.23ZM195.15,67,79.29,4.76H-137.89L5.56,67Zm8.37,0H394.65L306.37,4.76H87.65Zm198,0H594.07L533.38,4.76H313.23ZM599.6,67H793.34L760.24,4.76H538.89Zm198.22,0H992.34L986.79,4.76h-222Zm198.5,0H1191l22-62.21H990.78Zm198.85,0h194.11l49.66-62.22H1217.22Zm199.18,0H1587.4l77.25-62.22H1444Zm199.36,0h191.71L1890.2,4.77H1670.94Zm199.47,0H1983.4L2115.81,4.76H1898Zm199.52,0h188.63l160-62.22H2125.1Zm-8.42,4-106.93,50.24h164.59l129.2-50.24Zm-115.35,54.2L1768,172.58H1909.8l122-47.44Zm-109.41,51.41-80.17,37.67H1802.7l96.9-37.68Zm-88.6,41.63-69.52,32.68h107.1l84-32.68Zm-78,36.64L1556.4,272h97.77l44.2-17.19Zm-9.31,0h-106.9l-29,17.22h99.32Zm-114.69,0H1360.53L1339.2,272H1440Zm-114.76,0H1244.43L1230.72,272h102.17Zm-114.84,0H1128.53L1122.44,272h103.25Zm-115,0h-111.4l1.53,17.22h103.76Zm-115.36,0H897.73L906.87,272h103.62Zm-115.72,0H782.78L799.54,272H902.38Zm-116,0H668L692.36,272H794Zm-116.14,0H553.27l32,17.22H685.49Zm-116.23,0H438.57L478.17,272h98.69Zm-116.26,0H323.92L371.16,272h97.08Zm-9.13-4-75.32-32.67H223.23L313,250.85Zm-84.44-36.63-86.88-37.68H108.77l103.59,37.68Zm-96-41.64L129.69,125.15H-32.5L97.85,172.6ZM120.56,121.19,4.73,71H-181.49l138.1,50.24ZM-4.39,67-147.84,4.77H-363.41L-192.33,67ZM-157,.81l-147.47-64H-550.09L-374.27.8Zm9.95,0H71.9l-119.12-64H-294.49ZM80.29.81H300.76L210-63.18H-38.86ZM307.6.81H529.51l-62.43-64H216.8ZM535,.81H758.09L724-63.2H472.59Zm227.57,0H986.43l-5.68-64H728.53Zm227.83,0h224l22.71-64H984.75Zm228.2,0h223.47l51.11-64H1241.32Zm228.52,0h222.39l79.51-64H1498.24Zm228.7,0h221.05l107.93-64.06H1755.32Zm228.81,0h219.55l136.35-64.07h-248Zm228.89,0h218l164.79-64.08H2269.87Zm433.28,4H2352.23L2192.24,67h187ZM2367.29,71H2182.05L2052.86,121.2h162.95Zm-163.41,54.2H2042.67l-122,47.43h140.19Zm-154.94,51.39H1910.51l-96.9,37.67h121.73Zm-125.55,41.63h-120l-84,32.69h105.47ZM1813,254.83H1709.22L1665.06,272h96.1ZM264.14,272h95.43l-47.24-17.19H209.27Zm-67.5-21.15H301.45l-89.79-32.71H92.36ZM79.72,214.22H200.77L97.19,176.54H-40.57ZM-53.21,172.58H86.31L-44.07,125.14H-204.62Zm-164-51.4H-55L-193.1,71H-377.64Zm-173-54.2H-204L-375,4.77H-588.9ZM-601.54.8h215.66l-175.82-64h-244ZM-1070.19-146l251.86,78.91h245.75L-789.43-146Zm292.35,0L-561-67.1h247.4L-495.44-146Zm292.36,0,181.87,78.89h249L-201.47-146Zm292.39,0L-46.23-67.12H204.34L92.46-146Zm292.42,0L211.22-67.13h252L386.3-146Zm292.51,0,76.91,78.86H722L680-146Zm292.65,0,42,78.85h254l-7-78.85Zm292.92,0,7,78.84h254.14l28-78.84Zm293.29,0-28,78.83h253.6l62.9-78.81Zm293.6,0-62.89,78.81H1754L1851.79-146Zm293.84,0-97.83,78.8h251.22L2144.27-146Zm293.9,0L2019.3-67.2H2269L2436.67-146ZM2446-146l-167.7,78.78h248.15L2729-146Zm294,0L2537.42-67.23h246.49L3021.36-146Z" transform="translate(1569.34 302)"/></g></g></g></g></g></g></svg>