<svg xmlns="http://www.w3.org/2000/svg" viewBox="0 0 192 108"><defs><style>.cls-1{fill:#6389a8;}.cls-2{fill:#fff;}</style></defs><g id="圖層_2" data-name="圖層 2"><g id="圖層_1-2" data-name="圖層 1"><rect class="cls-1" width="192" height="108"/><path class="cls-2" d="M91.05,51.72a3.22,3.22,0,0,1-3-2.2l0-.1a3.32,3.32,0,0,1-.15-.93V42.62l-2.08,7A2,2,0,0,0,87.11,52l13.3,3.57a2.2,2.2,0,0,0,.5.06,1.92,1.92,0,0,0,1.86-1.41l.77-2.46Z"/><path class="cls-2" d="M93.42,42.68A1.72,1.72,0,1,0,91.7,41a1.72,1.72,0,0,0,1.72,1.72Z"/><path class="cls-2" d="M104.18,36.66H91.27a2.16,2.16,0,0,0-2.16,2.15v9.46a2.16,2.16,0,0,0,2.16,2.16h12.91a2.16,2.16,0,0,0,2.15-2.16V38.81a2.15,2.15,0,0,0-2.15-2.15ZM91.27,38.38h12.91a.43.43,0,0,1,.43.43v6.11l-2.72-3.18a1.57,1.57,0,0,0-1.16-.52,1.52,1.52,0,0,0-1.15.54L96.39,45.6l-1-1a1.51,1.51,0,0,0-2.14,0l-2.37,2.37V38.81a.43.43,0,0,1,.43-.43Z"/><path class="cls-2" d="M87.1,64.35a1.13,1.13,0,0,0,.2-.54l.19,0a1.1,1.1,0,0,1-.21.59Zm.05-.88.55,0v-.19h-.48V63h.48v-.17h-.47V61.79h1.21v1.08H88V63h.5v.22H88v.18l.55,0v.23l-1.32.07Zm.29-.8h.3V62h-.3Zm.16-.58a1.91,1.91,0,0,1,.09.44l-.13,0a2,2,0,0,0-.09-.45Zm.13,1.71a2.06,2.06,0,0,1,.08.52l-.19,0a3.44,3.44,0,0,0-.06-.53Zm.29,0a2.54,2.54,0,0,1,.14.48l-.18,0a1.75,1.75,0,0,0-.14-.49Zm.2-1.8h-.3v.69h.3Zm-.28.56a2.6,2.6,0,0,0,.12-.46l.16.06c-.06.15-.12.33-.17.44Zm.36,1.17a1.72,1.72,0,0,1,.25.45l-.18.08a1.85,1.85,0,0,0-.24-.46Zm1-1.13v.52h.5v1.33h-.26v-.11h-.67v.12h-.26V63.1H89V61.69h.27v.64h.62v.25Zm.24.77h-.67v.71h.67Z"/><path class="cls-2" d="M91.22,63.94l.37-.07,0,.28-1.43.27,0-.3.23,0V62.3h.28V64l.28-.05v-2.3h.29v.9h.38v.27h-.38Zm1.28.15c.12,0,.14-.11.15-.52a.75.75,0,0,0,.27.13c0,.48-.11.66-.39.66h-.41c-.3,0-.39-.1-.39-.47v-2.2H92v.9h.7v.27H92v1c0,.16,0,.19.13.19Z"/><path class="cls-2" d="M93.58,63a2.54,2.54,0,0,0-.47-.27l.15-.21a2.7,2.7,0,0,1,.48.25Zm-.39,1.19a6.29,6.29,0,0,0,.38-.94l.23.17c-.1.31-.24.66-.36.94Zm.58-2a4,4,0,0,0-.48-.29l.15-.2a2.51,2.51,0,0,1,.49.27Zm1.54.49a1.44,1.44,0,0,0,.61.48.91.91,0,0,0-.18.21,1.65,1.65,0,0,1-.72-.69h-.33a1.7,1.7,0,0,1-.75.75,1.12,1.12,0,0,0-.17-.21,1.43,1.43,0,0,0,.6-.54h-.5v-.26h.64a2.06,2.06,0,0,0,.12-.35H94v-.26h1.76v.26h-.84a3.58,3.58,0,0,1-.11.35h1.06v.26Zm-.87.73a2.17,2.17,0,0,1-.36.67L93.87,64a1.91,1.91,0,0,0,.35-.62Zm.15-.41h.26v1.13c0,.13,0,.2-.12.24a1.06,1.06,0,0,1-.41,0,.75.75,0,0,0-.08-.24h.3s0,0,0,0Zm.53.36a2.84,2.84,0,0,1,.21.62l-.22.09a2.93,2.93,0,0,0-.2-.64Zm.36-.11a3,3,0,0,1,.39.72l-.22.12a3.26,3.26,0,0,0-.38-.74Z"/><path class="cls-2" d="M97.5,62.23v.13a5.41,5.41,0,0,1-.21,1.88.26.26,0,0,1-.21.13h-.34a.63.63,0,0,0-.08-.29h.28a.11.11,0,0,0,.1,0,4.42,4.42,0,0,0,.17-1.55h-.37a3.39,3.39,0,0,1-.51,1.94.85.85,0,0,0-.22-.2,3,3,0,0,0,.46-1.74h-.39v-.27h.4V61.7h.28v.53Zm1.25-.18v2.32h-.29v-.19H98v.22h-.27V62.05Zm-.29,1.86V62.32H98v1.59Z"/><path class="cls-2" d="M99.89,62.81c.11.11.37.42.43.5l-.17.23a3.75,3.75,0,0,0-.26-.41v1.31h-.27V63.12a2.91,2.91,0,0,1-.39.79,2.15,2.15,0,0,0-.14-.26,3,3,0,0,0,.5-1.07h-.43v-.26h.46v-.63h.27v.63h.4v.26h-.4Zm1.89-1v2.55h-.28v-.16h-.82v.17h-.26V61.86Zm-1.1.26v.44h.82v-.44Zm0,1.16h.82v-.46h-.82Zm.82.71v-.46h-.82V64Z"/><path class="cls-2" d="M104.33,63.12v1.33H104V63.4h-1.19a1.84,1.84,0,0,1-.45,1.06,1.47,1.47,0,0,0-.21-.22,2.17,2.17,0,0,0,.41-1.5v-1h.28v.67h1.06v-.71h.29v1h-1.35v.06c0,.13,0,.26,0,.38Z"/></g></g></svg>