<svg xmlns="http://www.w3.org/2000/svg" viewBox="0 0 35.01 35.01"><defs><style>.cls-1{fill:#fff;}</style></defs><g id="圖層_2" data-name="圖層 2"><g id="圖層_1-2" data-name="圖層 1"><g id="Clock"><path id="Path_13" data-name="Path 13" class="cls-1" d="M5.26,5.26A15.87,15.87,0,0,1,17.51,0,15.9,15.9,0,0,1,29.76,5.26,15.87,15.87,0,0,1,35,17.51a15.9,15.9,0,0,1-5.25,12.25A15.9,15.9,0,0,1,17.51,35,15.87,15.87,0,0,1,5.26,29.76C2.05,26.26,0,22.46,0,17.51A15.87,15.87,0,0,1,5.26,5.26ZM25.38,25.38l2-2-7.29-7.29L17.51,4.38H14.59V17.51a2.68,2.68,0,0,0,.87,2,1,1,0,0,0,.59.29Z"/></g></g></g></svg>