<svg xmlns="http://www.w3.org/2000/svg" viewBox="0 0 585.17 111.91"><defs><style>.cls-1{fill:none;stroke:#fed6a2;stroke-width:3px;}</style></defs><g id="圖層_2" data-name="圖層 2"><g id="圖層_1-2" data-name="圖層 1"><path id="Path_351-2" data-name="Path 351-2" class="cls-1" d="M1.52,106.16V5.67A2,2,0,0,1,3.22,3.4a1.82,1.82,0,0,1,.57,0A2,2,0,0,1,6.06,5.1a1.82,1.82,0,0,1,0,.57v96A2,2,0,0,0,7.7,104a1.75,1.75,0,0,0,.56,0H34.55A28.16,28.16,0,0,0,55.21,95.4a28.31,28.31,0,0,0,8.57-20.73V37.17a28.23,28.23,0,0,0-8.57-20.66A28.21,28.21,0,0,0,34.55,7.94h-9a2,2,0,0,0-2.27,1.71,2.72,2.72,0,0,0,0,.57v73.9A2,2,0,0,0,25,86.39a2.62,2.62,0,0,0,.56,0H33a13.08,13.08,0,0,0,9.59-4,12.93,12.93,0,0,0,4-9.52V39.14a13,13,0,0,0-4-9.52A13.11,13.11,0,0,0,33,25.67h-3.3A2,2,0,0,1,27.51,24a1.75,1.75,0,0,1,0-.56,2,2,0,0,1,1.64-2.26,1.76,1.76,0,0,1,.56,0H33A17.36,17.36,0,0,1,45.76,26.4,17.36,17.36,0,0,1,51,39.14V72.91a17.19,17.19,0,0,1-5.31,12.67A17.37,17.37,0,0,1,33,90.85H21a1.94,1.94,0,0,1-2.2-1.64,2.62,2.62,0,0,1,0-.56v-83a2,2,0,0,1,1.64-2.26,1.76,1.76,0,0,1,.56,0H34.55A33,33,0,0,1,51.47,7.94a33.74,33.74,0,0,1,12.3,12.3,32.79,32.79,0,0,1,4.54,16.92v37.5a32.82,32.82,0,0,1-4.54,16.92,33.74,33.74,0,0,1-12.3,12.3,32.87,32.87,0,0,1-16.92,4.55H3.79a2,2,0,0,1-2.27-1.7A1.82,1.82,0,0,1,1.52,106.16Zm106,0V5.67a2,2,0,0,1,1.7-2.27,1.82,1.82,0,0,1,.57,0h28.93a29.9,29.9,0,0,1,21.94,9.12,29.93,29.93,0,0,1,9.11,21.94,30.59,30.59,0,0,1-4,15.3A31,31,0,0,1,155.08,61c-.19.15-1.44.78-3.73,1.9a28.19,28.19,0,0,1-8.57,2.42c-1.66.29-2.2,1.2-1.61,2.71l15.31,34.2A2.6,2.6,0,0,0,159,104h8.5a1.92,1.92,0,0,0,1.72-.74,2.06,2.06,0,0,0,0-2L154.49,68.81c-.58-1.17-.21-2.17,1.1-3,1.47-.15,2.4.22,2.79,1.1l16.84,38.81a3,3,0,0,1,.3,1.17,1,1,0,0,1-.22.81,1.91,1.91,0,0,1-1.76.73H156a2.6,2.6,0,0,1-2.57-1.68L135.6,65.66l-.73-1.9a2.07,2.07,0,0,1,0-1.83,1.54,1.54,0,0,1,1.5-.73h2.42a28.48,28.48,0,0,0,11.13-2.42,21.47,21.47,0,0,0,3.73-2.27,26.17,26.17,0,0,0,11.72-22,25.56,25.56,0,0,0-7.83-18.75,25.55,25.55,0,0,0-18.75-7.77H114.29a2,2,0,0,0-2.21,1.71,1.82,1.82,0,0,0,0,.57v91.47a2,2,0,0,0,1.63,2.27,1.82,1.82,0,0,0,.57,0h9a2,2,0,0,0,2.28-1.7,2.72,2.72,0,0,0,0-.57v-56a2,2,0,0,1,1.7-2.27,1.82,1.82,0,0,1,.57,0h10.91a8.75,8.75,0,0,0,6.37-2.6,9.05,9.05,0,0,0,0-12.78,8.68,8.68,0,0,0-6.37-2.64H128a2,2,0,0,1-2.27-1.64,2.09,2.09,0,0,1,0-.56A2,2,0,0,1,127.42,21a1.82,1.82,0,0,1,.57,0h10.76A13.62,13.62,0,0,1,152.3,34.45,13.55,13.55,0,0,1,138.75,48h-6.44a2,2,0,0,0-2.26,1.64,1.75,1.75,0,0,0,0,.56v56a2,2,0,0,1-1.64,2.26,1.82,1.82,0,0,1-.57,0h-18a2,2,0,0,1-2.27-1.7,1.82,1.82,0,0,1,0-.57Zm103.9,0V89a2,2,0,0,1,1.7-2.27,1.82,1.82,0,0,1,.57,0h12A2,2,0,0,0,227.94,85a2.09,2.09,0,0,0,0-.56V23a2,2,0,0,1,1.7-2.27,1.82,1.82,0,0,1,.57,0h29.3A2,2,0,0,0,261.71,19a2.09,2.09,0,0,0,0-.56v-8.2A2,2,0,0,0,260.06,8a2.09,2.09,0,0,0-.56,0H219a2,2,0,0,0-2.27,1.71,1.82,1.82,0,0,0,0,.57v8.2a2,2,0,0,0,1.7,2.27,2.71,2.71,0,0,0,.57,0h2.2a2,2,0,0,1,2.27,1.7,1.82,1.82,0,0,1,0,.57,2,2,0,0,1-1.71,2.21,2.1,2.1,0,0,1-.56,0h-6.74a2,2,0,0,1-2.26-1.64,2.11,2.11,0,0,1,0-.56V5.67a2,2,0,0,1,1.7-2.27,1.82,1.82,0,0,1,.57,0H264a2,2,0,0,1,2.27,1.7,1.82,1.82,0,0,1,0,.57V23a2,2,0,0,1-1.7,2.21,2.18,2.18,0,0,1-.57,0H234.74a2,2,0,0,0-2.27,1.7,1.82,1.82,0,0,0,0,.57V89a2,2,0,0,1-1.71,2.21,2.09,2.09,0,0,1-.56,0h-12A2,2,0,0,0,216,92.86a1.75,1.75,0,0,0,0,.56v8.28a2,2,0,0,0,1.63,2.26,2.18,2.18,0,0,0,.57,0h42a2,2,0,0,0,2.27-1.7,2.71,2.71,0,0,0,0-.57V93.42a2,2,0,0,0-1.71-2.27,1.75,1.75,0,0,0-.56,0h-12A2,2,0,0,1,246,89.51a2.09,2.09,0,0,1,0-.56V32a2,2,0,0,1,1.71-2.27,1.82,1.82,0,0,1,.57,0,2,2,0,0,1,2.27,1.7,2.72,2.72,0,0,1,0,.57V84.41a2,2,0,0,0,1.63,2.26,2.18,2.18,0,0,0,.57,0h12a2,2,0,0,1,2.27,1.7,1.82,1.82,0,0,1,0,.57v17.21a2,2,0,0,1-1.7,2.27,1.88,1.88,0,0,1-.58,0h-51a2,2,0,0,1-2.27-1.7,1.82,1.82,0,0,1,0-.57Zm95.25,0V5.67a2,2,0,0,1,1.71-2.27,1.82,1.82,0,0,1,.57,0,2,2,0,0,1,2.27,1.7,2.72,2.72,0,0,1,0,.57v96a2,2,0,0,0,1.63,2.27,1.82,1.82,0,0,0,.57,0h8.27a2,2,0,0,0,2.27-1.7,1.82,1.82,0,0,0,0-.57v-96a2,2,0,0,1,1.64-2.26,2.11,2.11,0,0,1,.56,0h2a2.51,2.51,0,0,1,2.56,1.69l27.32,54.42c.49,1.07,1.05,1.52,1.69,1.35s.95-.82.95-1.94V5.67a2,2,0,0,1,1.7-2.27,1.82,1.82,0,0,1,.57,0h17.29a2,2,0,0,1,2.21,1.71,2.09,2.09,0,0,1,0,.56V106.16a2,2,0,0,1-1.64,2.26,1.82,1.82,0,0,1-.57,0H361.05a2.49,2.49,0,0,1-2.56-1.68l-24.9-49.44a7.21,7.21,0,0,1-.59-2.86V52.91c0-1.12.32-1.77.95-1.94s1.2.28,1.69,1.36l25.05,50a2.49,2.49,0,0,0,2.56,1.68H375.7a2,2,0,0,0,2.27-1.7,1.82,1.82,0,0,0,0-.57V10.21a2,2,0,0,0-1.7-2.27,2.71,2.71,0,0,0-.57,0h-8.2a2,2,0,0,0-2.27,1.71,1.75,1.75,0,0,0,0,.56V76.94c0,1.12-.32,1.77-1,1.94s-1.22-.28-1.76-1.36L331.17,14.83c-.54-1.07-1.12-1.52-1.76-1.35s-1,.81-1,1.94v90.74a2,2,0,0,1-1.7,2.27,1.82,1.82,0,0,1-.57,0H309a2,2,0,0,1-2.27-1.7,1.82,1.82,0,0,1,0-.57Zm116.65,0V5.67a2,2,0,0,1,1.7-2.27,1.82,1.82,0,0,1,.57,0h18a2,2,0,0,1,2.21,1.71,2.09,2.09,0,0,1,0,.56V36.43a5.85,5.85,0,0,1-.73,2.86l-1,1.9c-.49,1-1.06,1.38-1.72,1.21s-1-.82-1-1.95V10.21a2,2,0,0,0-1.7-2.27,2.71,2.71,0,0,0-.57,0h-9a2,2,0,0,0-2.21,1.71,1.75,1.75,0,0,0,0,.56v91.48a2,2,0,0,0,1.63,2.27,1.82,1.82,0,0,0,.57,0h9a2,2,0,0,0,2.28-1.7,2.72,2.72,0,0,0,0-.57V57.16a5.46,5.46,0,0,1,.73-2.85L468.83,5.09a2.87,2.87,0,0,1,2.71-1.69H490a1.8,1.8,0,0,1,1.68.73,2.56,2.56,0,0,1,.22.66,2.51,2.51,0,0,1-.44,1.32L456.24,71.37a2.76,2.76,0,0,0,0,3l15,27.91a2.72,2.72,0,0,0,2.64,1.68h8.71c1.95,0,2.47-.9,1.54-2.71l-18.6-34.64a3.28,3.28,0,0,1-.15-3l.15-.15c.44-.83.94-1.24,1.5-1.24s1.06.41,1.5,1.24l22.93,42.26a3,3,0,0,1,.44,1.32,3,3,0,0,1-.22.66,1.82,1.82,0,0,1-1.69.73H471.55a2.87,2.87,0,0,1-2.71-1.68L451.26,74.37a2.76,2.76,0,0,1,0-3l32.88-60.71a2,2,0,0,0,.22-2A1.84,1.84,0,0,0,482.61,8h-8.72a2.73,2.73,0,0,0-2.64,1.61l-24.46,45a7.64,7.64,0,0,0-1,2.85v48.71a2,2,0,0,1-1.64,2.26,2,2,0,0,1-.55,0h-18a2,2,0,0,1-2.27-1.7,1.82,1.82,0,0,1,0-.57Zm101-25.49a2,2,0,0,1,1.7-2.27,1.82,1.82,0,0,1,.57,0H544c1.51,0,2.27.37,2.27,1.1v1.17a7.3,7.3,0,0,0,2.3,5.42,7.62,7.62,0,0,0,5.53,2.27,7.26,7.26,0,0,0,5.39-2.27,7.44,7.44,0,0,0,2.23-5.42,8.91,8.91,0,0,0-1-4,16.43,16.43,0,0,0-3.4-4.29c-1.62-1.54-3-2.78-4.22-3.73s-3.06-2.38-5.6-4.29l-.95-.73L545,62.36q-1.83-1.61-.29-3.15l1.46-1.61,7-7.1q1.55-1.53-.29-3.15a48.76,48.76,0,0,1-8.24-8.13,13.14,13.14,0,0,1-2.82-8,11.63,11.63,0,0,1,3.63-8.61A12,12,0,0,1,554.14,19,11.43,11.43,0,0,1,561,21.24,12.79,12.79,0,0,1,565.49,27a2.45,2.45,0,0,0,2.42,2h8.71a2.22,2.22,0,0,0,1.72-.66,1.85,1.85,0,0,0,.4-1.76,24.5,24.5,0,0,0-8.6-14.68,24.85,24.85,0,0,0-33.8,1.53,24.26,24.26,0,0,0-7.4,17.76q0,11.65,11.93,22.05,1.85,1.55.22,3.15l-.22.15a2,2,0,0,1-2.8.34,2.19,2.19,0,0,1-.34-.34,58.55,58.55,0,0,1-5.5-5.64q-7.83-9.16-7.83-19.7a28.5,28.5,0,0,1,8.75-21,28.71,28.71,0,0,1,21-8.72A28.38,28.38,0,0,1,575,10.22a28.66,28.66,0,0,1,8.68,21,2,2,0,0,1-1.71,2.26,1.75,1.75,0,0,1-.56,0H564c-1.51,0-2.27-.39-2.27-1.17v-1.1a7.63,7.63,0,0,0-7.62-7.62,7.69,7.69,0,0,0-5.53,2.24,7.2,7.2,0,0,0-2.3,5.38,10.15,10.15,0,0,0,3,6.81,63.87,63.87,0,0,0,8.9,7.77l2.42,1.83c.78.63.63,1.41-.44,2.34l-1.69,1.69-6.88,7c-1.17,1.17-1.69,1.83-1.54,2l.15.15q3.36,2.49,5,3.73T559.33,68a27.44,27.44,0,0,1,3.78,4,21.85,21.85,0,0,1,2.2,4,12.11,12.11,0,0,1-11.17,16.81,11.88,11.88,0,0,1-7-2.23,12.73,12.73,0,0,1-4.55-5.75,2.42,2.42,0,0,0-2.41-1.9h-8.72a2.12,2.12,0,0,0-1.68.66,1.93,1.93,0,0,0-.37,1.76A24.1,24.1,0,0,0,538,99.9a24.52,24.52,0,0,0,16.15,5.82,25.15,25.15,0,0,0,25.05-25,22.6,22.6,0,0,0-4.07-13.14A56.58,56.58,0,0,0,564,55.92q-1.83-1.62-.29-3.15l.14-.15a2.07,2.07,0,0,1,2.89-.38,1.48,1.48,0,0,1,.26.24A75.44,75.44,0,0,1,575.88,61q7.77,9.09,7.77,19.63a28.76,28.76,0,0,1-8.68,21,28.33,28.33,0,0,1-20.84,8.75A29.88,29.88,0,0,1,524.4,80.67Z"/></g></g></svg>