<svg xmlns="http://www.w3.org/2000/svg" viewBox="0 0 16 10.97"><defs><style>.cls-1{fill:#ff8d00;}.cls-2{fill:#002a4c;}</style></defs><g id="圖層_2" data-name="圖層 2"><g id="圖層_1-2" data-name="圖層 1"><path id="Path_387" data-name="Path 387" class="cls-1" d="M9.18,5.49A3.68,3.68,0,1,1,5.5,1.81,3.69,3.69,0,0,1,9.18,5.49h0"/><path id="Path_388" data-name="Path 388" class="cls-2" d="M10.52,0A5.26,5.26,0,0,0,8,.62a5.49,5.49,0,1,0-.22,9.85V9.14a4.48,4.48,0,1,1,1.13.63A5.49,5.49,0,0,0,11,5.49V5H7.44A.46.46,0,0,0,7,5.49.45.45,0,0,0,7.44,6H10A4.56,4.56,0,0,1,8.23,9.14v1.33A5.48,5.48,0,1,0,12.8.5,5.56,5.56,0,0,0,10.52,0M5,5.49A5.45,5.45,0,0,0,7.09,9.76a4.56,4.56,0,1,1,0-8.55A5.49,5.49,0,0,0,5,5.49"/></g></g></svg>