<svg xmlns="http://www.w3.org/2000/svg" viewBox="0 0 120.99 106.87"><defs><style>.cls-1{fill:#fff;}.cls-2{fill:#ff8d00;}</style></defs><g id="圖層_2" data-name="圖層 2"><g id="圖層_1-2" data-name="圖層 1"><path class="cls-1" d="M0,93.81V90.44q0-5.32,2.8-8.31a10.07,10.07,0,0,1,7.73-3,10.75,10.75,0,0,1,7.93,3c1.4,1.41,2.1,3.51,2.1,6.32h-5q0-4.56-4.86-4.56a5.09,5.09,0,0,0-2.47.56,4.25,4.25,0,0,0-1.51,1.28A5.84,5.84,0,0,0,6,87.87a15.84,15.84,0,0,0-.3,2.38c0,.64,0,1.49,0,2.56s0,1.8,0,2.17,0,1,.11,1.8a7,7,0,0,0,.31,1.78c.14.35.34.81.61,1.38a2.57,2.57,0,0,0,1,1.18,6.43,6.43,0,0,0,3.56,1A4.83,4.83,0,0,0,16,99.28V97.45h-3.3V93h7.85v8.24a8.44,8.44,0,0,1-3.75,4.21A11.89,11.89,0,0,1,11,106.87q-5.77,0-8.37-3.24T0,93.81Z"/><path class="cls-2" d="M46.06,91.74v2.07q0,6.85-2.58,10t-8.29,3.11q-5.71,0-8.25-3.11T24.39,93.69v-2c0-4.23.86-7.39,2.58-9.45s4.46-3.11,8.2-3.11,6.49,1,8.25,3.14S46.06,87.53,46.06,91.74Zm-5.32,2V92.28a15.43,15.43,0,0,0-.92-5.86c-.71-1.69-2.25-2.53-4.59-2.53s-3.92.84-4.64,2.53a15.59,15.59,0,0,0-.88,5.86v1.41q0,4.95,1.38,6.67a4.28,4.28,0,0,0,1.59,1.24,5.6,5.6,0,0,0,2.53.52,5.71,5.71,0,0,0,2.5-.5,4.39,4.39,0,0,0,1.61-1.23,4.91,4.91,0,0,0,.88-1.91A17.71,17.71,0,0,0,40.74,93.69Z"/><path class="cls-1" d="M70.49,98.79a7.1,7.1,0,0,1-7.77,7.85H59c-3,0-5.15-.53-6.41-1.57s-1.9-2.86-1.9-5.44V79.37H62.26q3.9,0,5.88,2a7.43,7.43,0,0,1,2,5.51,5.79,5.79,0,0,1-1.06,3.52,6.35,6.35,0,0,1-2.31,2.07C69.24,93.61,70.49,95.72,70.49,98.79ZM61.84,90a3,3,0,0,0,0-5.9H56.05V90Zm3.33,8.5a4.92,4.92,0,0,0-.65-2.78,2.68,2.68,0,0,0-2.34-.94H56.05v4.29a2.65,2.65,0,0,0,.79,2.19,4.29,4.29,0,0,0,2.58.61h2.76C64.17,101.89,65.17,100.76,65.17,98.52Z"/><path class="cls-2" d="M96.6,106.64H91.05l-1.53-4.71H80.37l-1.5,4.71H73.32l8.73-25a4.22,4.22,0,0,1,1.29-1.8,3,3,0,0,1,1.74-.5,2.79,2.79,0,0,1,1.66.46,3.9,3.9,0,0,1,1.13,1.84Zm-8.31-9.19-3.21-10.8-3.37,10.8Z"/><path class="cls-1" d="M121,106.64h-6.16l-5.32-10.11h-3.83v10.11h-5.33V85.23a6.07,6.07,0,0,1,1.42-4.46q1.42-1.39,4.75-1.4H111a8.34,8.34,0,0,1,8.84,8.73,8,8,0,0,1-1.43,4.77,7.45,7.45,0,0,1-3.55,2.78Zm-7.52-15.72A4.09,4.09,0,0,0,114.56,88a3.87,3.87,0,0,0-1-2.82,3.8,3.8,0,0,0-2.82-1.07h-2.64a2.12,2.12,0,0,0-2.37,2.41v5.56h5A3.63,3.63,0,0,0,113.47,90.92Z"/><circle class="cls-2" cx="43.79" cy="36.18" r="24.28"/><path class="cls-1" d="M76.93,0A35.88,35.88,0,0,0,60.38,4,36.19,36.19,0,1,0,58.9,69V60.25a29.76,29.76,0,1,1,7.51,4.14A36.14,36.14,0,0,0,80,36.18v-3H56.6a3,3,0,0,0,0,6.08H73.75a30.15,30.15,0,0,1-11.92,21V69a35.83,35.83,0,0,0,15.1,3.33A36.18,36.18,0,0,0,76.93,0ZM40.75,36.18a36.1,36.1,0,0,0,13.56,28.2A30.1,30.1,0,1,1,54.32,8,36.13,36.13,0,0,0,40.75,36.18Z"/></g></g></svg>