<svg xmlns="http://www.w3.org/2000/svg" viewBox="0 0 390.39 26.09"><defs><style>.cls-1{fill:#fff;}</style></defs><g id="圖層_2" data-name="圖層 2"><g id="圖層_1-2" data-name="圖層 1"><path id="Path_389" data-name="Path 389" class="cls-1" d="M14.6,3.44H6.5L5,10.61h7.5L12,12.83H4.5L3,20h8.61l-.44,2.22H0l4.44-21H15.09Zm13.14,14c-.07.37-.15.79-.22,1.25s-.14.93-.19,1.38-.1.88-.14,1.27-.05.69-.05.9H24.65c0-.19,0-.43.05-.7s0-.55.08-.85.07-.58.1-.86.07-.53.11-.73h-.06c-.3.47-.61.93-.92,1.35a6.91,6.91,0,0,1-1,1.12,4.7,4.7,0,0,1-4.73.69,3.92,3.92,0,0,1-1.4-1,5,5,0,0,1-.9-1.74A8.78,8.78,0,0,1,15.63,17a14,14,0,0,1,.17-1.94,12.25,12.25,0,0,1,.6-2.21,11.35,11.35,0,0,1,1.11-2.2,8.13,8.13,0,0,1,1.73-1.92,8.38,8.38,0,0,1,2.44-1.37,9.45,9.45,0,0,1,3.25-.51A16.32,16.32,0,0,1,27.35,7c.83.11,1.65.26,2.47.42ZM27.06,9.2c-.35-.07-.75-.14-1.2-.2a9.32,9.32,0,0,0-1.29-.09,5.94,5.94,0,0,0-2.25.4,5.61,5.61,0,0,0-1.69,1.06,6,6,0,0,0-1.21,1.5,10,10,0,0,0-.79,1.73,9.66,9.66,0,0,0-.41,1.75,10.39,10.39,0,0,0-.13,1.57,6.26,6.26,0,0,0,.15,1.5,3.15,3.15,0,0,0,.46,1.14,2.22,2.22,0,0,0,.8.72,2.48,2.48,0,0,0,1.17.26,3.25,3.25,0,0,0,1.37-.3,4.67,4.67,0,0,0,1.19-.82,6.7,6.7,0,0,0,1-1.18,12,12,0,0,0,.82-1.43,12.13,12.13,0,0,0,.63-1.54,13.83,13.83,0,0,0,.41-1.52Zm14.4.06H37.67l-1.68,8c-.06.3-.12.63-.18,1a4.89,4.89,0,0,0-.08.85,1.46,1.46,0,0,0,.33,1.08,1.36,1.36,0,0,0,1,.33,1.76,1.76,0,0,0,.46-.06c.18,0,.37-.08.57-.14l.58-.2.5-.2L38.76,22a6.91,6.91,0,0,1-1.17.37,5.68,5.68,0,0,1-1.23.16,4,4,0,0,1-1.42-.22,2.34,2.34,0,0,1-1-.6,2.5,2.5,0,0,1-.55-1,4.56,4.56,0,0,1-.16-1.27,6.61,6.61,0,0,1,.08-1,8.92,8.92,0,0,1,.2-1l1.73-8.16H32.79l.45-2H35.7l.77-3.66.45-.14.85-.25.85-.25.43-.14-.92,4.44h3.78Zm29,13H67.83L66.49,6.65a8.68,8.68,0,0,1,0-1c0-.38.06-.74.09-1.07h-.06c-.1.31-.22.66-.37,1.05a8.37,8.37,0,0,1-.45,1l-8,15.6H55.05l-1.67-21H56l1.09,16a9.37,9.37,0,0,1,0,1.06c0,.35,0,.69-.1,1H57c0-.14.1-.29.17-.47l.22-.55.24-.56.25-.52,8.16-16h2.25l1.32,16.11a7.8,7.8,0,0,1,0,1c0,.37,0,.7-.06,1h.06c0-.16.1-.33.16-.51s.13-.36.21-.54.14-.36.22-.53.14-.32.21-.46l7.71-16h2.74ZM93,10.74a4.43,4.43,0,0,1-.53,2.16,4.3,4.3,0,0,1-1.74,1.67,10.67,10.67,0,0,1-3.21,1.08,27.92,27.92,0,0,1-4.92.4,1.84,1.84,0,0,0,0,.33v.3a5,5,0,0,0,.22,1.49,3.46,3.46,0,0,0,.68,1.23,3.23,3.23,0,0,0,1.19.84,4.4,4.4,0,0,0,1.72.3,7.29,7.29,0,0,0,2.22-.38,10,10,0,0,0,2.31-1.11l-.46,2.37a10.18,10.18,0,0,1-1.92.82,8.37,8.37,0,0,1-2.49.35,6.84,6.84,0,0,1-2.79-.51,5,5,0,0,1-1.83-1.37,5.37,5.37,0,0,1-1-2,8.53,8.53,0,0,1-.31-2.35,10.82,10.82,0,0,1,.29-2.54,10.2,10.2,0,0,1,.83-2.28,9.56,9.56,0,0,1,1.29-1.93,8,8,0,0,1,1.65-1.48,7.86,7.86,0,0,1,2-1,6.8,6.8,0,0,1,2.15-.33,6.08,6.08,0,0,1,2,.3A4.21,4.21,0,0,1,91.79,8a3.41,3.41,0,0,1,.9,1.23A3.7,3.7,0,0,1,93,10.74Zm-2.45.11a1.67,1.67,0,0,0-.68-1.43,2.84,2.84,0,0,0-1.81-.51,4.11,4.11,0,0,0-1.72.38,5.67,5.67,0,0,0-1.54,1.07A6.68,6.68,0,0,0,83.58,12a7.47,7.47,0,0,0-.75,2,24.93,24.93,0,0,0,3.56-.21,9.35,9.35,0,0,0,2.39-.62,3.28,3.28,0,0,0,1.35-1A2.23,2.23,0,0,0,90.55,10.85Zm9.71,11.31a4.64,4.64,0,0,1-.82.19,5.72,5.72,0,0,1-.92.08,3,3,0,0,1-2.21-.74,2.72,2.72,0,0,1-.73-2,6.11,6.11,0,0,1,.07-.86c0-.34.13-.75.23-1.23L99.63,0h2.44L98.3,17.67c-.09.41-.15.72-.18.95a3.66,3.66,0,0,0-.05.57,1.17,1.17,0,0,0,.33.92,1.49,1.49,0,0,0,1,.31,4.92,4.92,0,0,0,.67,0,3.58,3.58,0,0,0,.54-.14Zm8.37,0a4.75,4.75,0,0,1-.83.19,5.62,5.62,0,0,1-.92.08,3,3,0,0,1-2.21-.74,2.72,2.72,0,0,1-.73-2,6.11,6.11,0,0,1,.07-.86q.08-.51.24-1.23L108,0h2.43l-3.76,17.67c-.09.41-.15.72-.19.95a3.66,3.66,0,0,0,0,.57,1.25,1.25,0,0,0,.33.92,1.52,1.52,0,0,0,1,.31,5,5,0,0,0,.67,0,3.18,3.18,0,0,0,.53-.14Zm3,3.93h-1.89l2.94-7.19h2.4Zm26.9-16.38a15.21,15.21,0,0,1-.31,3.09,13.09,13.09,0,0,1-1,2.93,11.3,11.3,0,0,1-1.67,2.58,10.52,10.52,0,0,1-2.45,2.06,12.11,12.11,0,0,1-3.26,1.36,15.91,15.91,0,0,1-4.12.49h-6.65l4.46-21h5.85a11.24,11.24,0,0,1,3.73.58A8,8,0,0,1,136,3.47a7.57,7.57,0,0,1,1.86,2.68A9.21,9.21,0,0,1,138.55,9.71ZM136,9.89a6.2,6.2,0,0,0-1.8-4.76,7.58,7.58,0,0,0-5.35-1.69h-3.21L122.07,20H126a11,11,0,0,0,4.34-.8A8.76,8.76,0,0,0,133.45,17a9.28,9.28,0,0,0,1.89-3.22A12,12,0,0,0,136,9.89Zm15.23-.12h-.06a4.09,4.09,0,0,0-.77-.34,2.74,2.74,0,0,0-.94-.17,2.8,2.8,0,0,0-1.63.55,5.89,5.89,0,0,0-1.41,1.45,10.52,10.52,0,0,0-1.12,2.06,14.81,14.81,0,0,0-.74,2.37l-1.4,6.53h-2.4l2.11-10c.09-.41.17-.84.26-1.29s.17-.9.24-1.35.14-.88.2-1.28.11-.79.13-1.12h2.37c0,.29-.06.6-.1.93s-.07.65-.11.95-.08.59-.12.84-.07.44-.09.58h.06A16.69,16.69,0,0,1,146.64,9a7,7,0,0,1,1-1.15,4.06,4.06,0,0,1,1.14-.74,3.05,3.05,0,0,1,1.3-.26,3.71,3.71,0,0,1,.81.08c.27,0,.51.11.72.16Zm6.12,12.39a4.75,4.75,0,0,1-.83.19,5.59,5.59,0,0,1-.91.08,3,3,0,0,1-2.21-.74,2.73,2.73,0,0,1-.74-2,6.11,6.11,0,0,1,.08-.86c.05-.34.12-.75.23-1.23l2.18-10.39h2.44l-2.2,10.45c-.09.41-.15.72-.19.95a5.48,5.48,0,0,0-.05.57,1.25,1.25,0,0,0,.33.92,1.5,1.5,0,0,0,1.06.31,4.87,4.87,0,0,0,.66,0,3.27,3.27,0,0,0,.54-.13Zm1.72-20.28A1.61,1.61,0,0,1,158.6,3a1.47,1.47,0,0,1-1.11.47A1.53,1.53,0,0,1,156.37,3a1.51,1.51,0,0,1-.47-1.13,1.38,1.38,0,0,1,.47-1.1,1.67,1.67,0,0,1,1.12-.43,1.54,1.54,0,0,1,1.1.43A1.47,1.47,0,0,1,159.05,1.88ZM174.92,11a4,4,0,0,1,0,.6c0,.25-.07.52-.13.82s-.11.58-.16.87-.11.53-.15.74l-1.75,8.21h-2.43l1.83-8.79q.06-.23.12-.54c0-.2.07-.41.1-.61s0-.4.07-.57a2.6,2.6,0,0,0,0-.4,2.66,2.66,0,0,0-.53-1.76,2,2,0,0,0-1.59-.64,3.71,3.71,0,0,0-1.92.57,7.69,7.69,0,0,0-1.76,1.45,9.7,9.7,0,0,0-1.38,1.93,7.45,7.45,0,0,0-.79,2l-1.56,7.32h-2.43l2.31-10.71c.08-.38.16-.77.23-1.19s.16-.82.22-1.2.13-.74.18-1.08.09-.6.12-.82h2.34c-.05.38-.11.78-.17,1.2s-.13.8-.18,1.15-.12.81-.19,1.2h.06a13,13,0,0,1,1.13-1.52A8.79,8.79,0,0,1,167.84,8a6.43,6.43,0,0,1,1.54-.85,4.74,4.74,0,0,1,1.71-.3,4.18,4.18,0,0,1,1.71.3A3,3,0,0,1,174,8a3.29,3.29,0,0,1,.7,1.3,5.92,5.92,0,0,1,.24,1.67Zm9.44,3.17,5.3,8.07h-2.78L182,14.3h-.06l-1.68,7.92h-2.44L182.53,0h2.4L182,13.58h.06l7.47-6.36h3.12Zm36.81,8.07h-2.61L217.22,6.65a5.91,5.91,0,0,1,0-1c0-.38.05-.73.08-1.07h-.06c-.1.32-.22.67-.37,1.06a7.58,7.58,0,0,1-.45,1l-8,15.6h-2.68l-1.67-21h2.61l1.08,16a9.37,9.37,0,0,1,0,1.06,8.76,8.76,0,0,1-.1,1h.06l.18-.47c.07-.18.14-.36.22-.55l.24-.56c.08-.19.16-.36.24-.52l8.16-16h2.26l1.31,16.11a5.22,5.22,0,0,1,0,1c0,.37,0,.7-.06,1h.06l.17-.51c.07-.18.13-.36.21-.54s.14-.36.22-.53.14-.32.21-.46l7.7-16h2.74Zm22.56-11.48a4.54,4.54,0,0,1-.53,2.16,4.37,4.37,0,0,1-1.74,1.67,10.77,10.77,0,0,1-3.21,1.08,28,28,0,0,1-4.92.4,1.84,1.84,0,0,0,0,.33v.3a4.72,4.72,0,0,0,.22,1.49,3.46,3.46,0,0,0,.68,1.23,3.15,3.15,0,0,0,1.19.84,4.36,4.36,0,0,0,1.72.3,7.22,7.22,0,0,0,2.21-.38,9.65,9.65,0,0,0,2.31-1.11l-.45,2.37a9.57,9.57,0,0,1-1.92.82,8.1,8.1,0,0,1-2.49.35,6.65,6.65,0,0,1-2.79-.51,4.85,4.85,0,0,1-1.83-1.37,5.22,5.22,0,0,1-1-2,8.82,8.82,0,0,1-.31-2.35A10.61,10.61,0,0,1,232,11.56a9.59,9.59,0,0,1,1.28-1.92,8.12,8.12,0,0,1,1.66-1.49,7.35,7.35,0,0,1,1.95-1A6.81,6.81,0,0,1,239,6.86a6.16,6.16,0,0,1,2,.31,4.18,4.18,0,0,1,1.48.84,3.57,3.57,0,0,1,.9,1.24A3.82,3.82,0,0,1,243.73,10.74Zm-2.45.11a1.67,1.67,0,0,0-.68-1.43,2.86,2.86,0,0,0-1.81-.51,4.12,4.12,0,0,0-1.73.38,5.67,5.67,0,0,0-1.54,1.07A6.91,6.91,0,0,0,234.31,12a7.47,7.47,0,0,0-.75,2,23.55,23.55,0,0,0,3.56-.21,9.28,9.28,0,0,0,2.38-.62,3.19,3.19,0,0,0,1.35-1A2.18,2.18,0,0,0,241.28,10.85ZM251,22.16a4.75,4.75,0,0,1-.83.19,5.59,5.59,0,0,1-.91.08,3,3,0,0,1-2.22-.74,2.77,2.77,0,0,1-.73-2,6.11,6.11,0,0,1,.08-.86,12,12,0,0,1,.23-1.23L250.36,0h2.43L249,17.67c-.09.41-.15.72-.18.95a3.68,3.68,0,0,0-.06.57,1.25,1.25,0,0,0,.33.92,1.52,1.52,0,0,0,1,.31,5,5,0,0,0,.67,0,3.18,3.18,0,0,0,.53-.14Zm8.36,0a4.64,4.64,0,0,1-.82.19,5.72,5.72,0,0,1-.92.08,3,3,0,0,1-2.21-.74,2.72,2.72,0,0,1-.73-2,6.11,6.11,0,0,1,.07-.86c0-.34.13-.75.23-1.23L258.72,0h2.44l-3.77,17.67c-.09.41-.15.72-.18.95a3.66,3.66,0,0,0,0,.57,1.17,1.17,0,0,0,.33.92,1.49,1.49,0,0,0,1,.31,4.92,4.92,0,0,0,.67,0,3.58,3.58,0,0,0,.54-.14Zm3,3.93h-1.89l2.95-7.19h2.4Zm18.36-3.87H269.84l4.44-21h2.55l-4,18.72h8.37Zm8.61-.06a4.75,4.75,0,0,1-.83.19,5.59,5.59,0,0,1-.91.08,3,3,0,0,1-2.22-.74,2.72,2.72,0,0,1-.73-2,6.11,6.11,0,0,1,.07-.86q.07-.51.24-1.23l2.18-10.39h2.43l-2.2,10.45c-.08.41-.15.72-.18.95a3.66,3.66,0,0,0-.05.57,1.25,1.25,0,0,0,.33.92,1.51,1.51,0,0,0,1,.31,4.87,4.87,0,0,0,.66,0,3.27,3.27,0,0,0,.54-.13Zm1.71-20.28A1.55,1.55,0,0,1,290.61,3a1.47,1.47,0,0,1-1.11.47A1.53,1.53,0,0,1,288.38,3a1.52,1.52,0,0,1-.48-1.13,1.39,1.39,0,0,1,.48-1.1A1.67,1.67,0,0,1,289.5.35a1.54,1.54,0,0,1,1.1.43,1.46,1.46,0,0,1,.45,1.1Zm7,20.34h-2l-2.37-15h2.43l1.32,9.45c0,.19.05.4.08.63s.05.47.07.72,0,.48.05.72,0,.44,0,.63h.06q.11-.27.27-.6c.1-.23.21-.46.34-.7l.39-.73c.13-.24.25-.47.37-.67l5.36-9.45h2.74Zm22.42-11.48a4.54,4.54,0,0,1-.53,2.16,4.37,4.37,0,0,1-1.74,1.67A10.77,10.77,0,0,1,315,15.65a28,28,0,0,1-4.92.4,1.84,1.84,0,0,0,0,.33v.3a4.72,4.72,0,0,0,.22,1.49,3.46,3.46,0,0,0,.68,1.23,3.19,3.19,0,0,0,1.18.84,4.45,4.45,0,0,0,1.73.3,7.22,7.22,0,0,0,2.21-.38,9.65,9.65,0,0,0,2.31-1.11l-.45,2.37a9.57,9.57,0,0,1-1.92.82,8.1,8.1,0,0,1-2.49.35,6.65,6.65,0,0,1-2.79-.51,4.85,4.85,0,0,1-1.83-1.37,5.22,5.22,0,0,1-1-2,8.82,8.82,0,0,1-.31-2.35,10.61,10.61,0,0,1,1.12-4.82A9.59,9.59,0,0,1,310,9.64a8.12,8.12,0,0,1,1.66-1.49,7.35,7.35,0,0,1,1.95-1,6.81,6.81,0,0,1,2.15-.34,6.16,6.16,0,0,1,2,.31,4.18,4.18,0,0,1,1.48.84,3.57,3.57,0,0,1,.9,1.24A3.82,3.82,0,0,1,320.44,10.74Zm-2.45.11a1.67,1.67,0,0,0-.68-1.43,2.86,2.86,0,0,0-1.81-.51,4.12,4.12,0,0,0-1.73.38,5.67,5.67,0,0,0-1.54,1.07A6.91,6.91,0,0,0,311,12a7.47,7.47,0,0,0-.75,2,24.93,24.93,0,0,0,3.56-.21,9.46,9.46,0,0,0,2.39-.62,3.34,3.34,0,0,0,1.35-1,2.22,2.22,0,0,0,.42-1.34Zm32.42,11.37H347.8L346.45,6.65a7,7,0,0,1,0-1c0-.38.05-.74.08-1.07h-.06c-.1.31-.22.66-.37,1.05a7.05,7.05,0,0,1-.45,1l-8,15.6H335l-1.67-21H336l1.08,16a9.37,9.37,0,0,1,0,1.06,8.76,8.76,0,0,1-.1,1H337l.18-.47c.06-.18.14-.36.22-.55a5.55,5.55,0,0,1,.24-.56c.08-.19.16-.36.24-.52l8.16-16h2.25l1.32,16.11a7.8,7.8,0,0,1,0,1c0,.37,0,.7-.06,1h.06l.17-.51c.06-.18.13-.36.2-.54s.15-.36.22-.53l.22-.46,7.7-16h2.74ZM373,10.74a4.53,4.53,0,0,1-.52,2.16,4.39,4.39,0,0,1-1.75,1.67,10.61,10.61,0,0,1-3.2,1.08,28.11,28.11,0,0,1-4.93.4,1.84,1.84,0,0,0,0,.33v.3a5.37,5.37,0,0,0,.22,1.49,3.34,3.34,0,0,0,.69,1.23,3.19,3.19,0,0,0,1.18.84,4.4,4.4,0,0,0,1.72.3,7.24,7.24,0,0,0,2.22-.38,9.83,9.83,0,0,0,2.31-1.11l-.45,2.37a10.46,10.46,0,0,1-1.92.82,8.42,8.42,0,0,1-2.49.35,6.81,6.81,0,0,1-2.79-.51,5.08,5.08,0,0,1-1.84-1.37,5.7,5.7,0,0,1-1-2,8.91,8.91,0,0,1-.3-2.35,10.31,10.31,0,0,1,.29-2.54,10.2,10.2,0,0,1,.83-2.28,10,10,0,0,1,1.28-1.93,7.84,7.84,0,0,1,3.6-2.44,6.91,6.91,0,0,1,2.16-.33,6.15,6.15,0,0,1,2,.3,4.3,4.3,0,0,1,1.48.85,3.54,3.54,0,0,1,1.2,2.73Zm-2.44.11a1.7,1.7,0,0,0-.68-1.43A2.86,2.86,0,0,0,368,8.91a4.12,4.12,0,0,0-1.73.38,5.67,5.67,0,0,0-1.54,1.07A6.68,6.68,0,0,0,363.54,12a7.79,7.79,0,0,0-.74,2,24.93,24.93,0,0,0,3.56-.21,9.46,9.46,0,0,0,2.39-.62,3.25,3.25,0,0,0,1.34-1,2.3,2.3,0,0,0,.43-1.34Zm9.71,11.31a4.75,4.75,0,0,1-.83.19,5.62,5.62,0,0,1-.92.08,3,3,0,0,1-2.21-.74,2.72,2.72,0,0,1-.73-2,6.11,6.11,0,0,1,.07-.86q.08-.51.24-1.23L379.6,0H382l-3.76,17.67c-.09.41-.15.72-.19.95a3.66,3.66,0,0,0-.05.57,1.25,1.25,0,0,0,.33.92,1.52,1.52,0,0,0,1.05.31,5,5,0,0,0,.67,0,3.18,3.18,0,0,0,.53-.14Zm8.36,0a4.75,4.75,0,0,1-.83.19,5.59,5.59,0,0,1-.91.08,3,3,0,0,1-2.21-.74,2.73,2.73,0,0,1-.74-2,6.11,6.11,0,0,1,.08-.86c0-.34.12-.75.23-1.23L388,0h2.43l-3.76,17.67c-.09.41-.15.72-.18.95a3.66,3.66,0,0,0-.05.57,1.2,1.2,0,0,0,.32.92,1.53,1.53,0,0,0,1,.31,4.92,4.92,0,0,0,.67,0,3.18,3.18,0,0,0,.53-.14Z"/></g></g></svg>