<svg xmlns="http://www.w3.org/2000/svg" viewBox="0 0 1791.84 230.65"><defs><style>.cls-1{fill:#fff;opacity:0.86;isolation:isolate;}</style></defs><g id="圖層_2" data-name="圖層 2"><g id="圖層_1-2" data-name="圖層 1"><path id="Path_6156" data-name="Path 6156" class="cls-1" d="M125.78,4.65V49H91.6V226H34V49H0V4.65Zm157.41,0L316.11,226H257.28l-3.09-39.78H233.61L230.14,226h-59.5L200,4.65ZM252.69,147q-4.38-37.6-8.77-93-8.79,63.57-11,93ZM439.44,4.65V226H381.88V4.65Zm79.11,0h58q23.51,0,36.16,3.69t19,10.67a36.64,36.64,0,0,1,8.61,16.88q2.25,9.91,2.26,30.69V85.86q0,21.19-4.38,30.9t-16.06,14.9q-11.7,5.21-30.56,5.2H576.1V226H518.55Zm57.56,37.87V98.85c1.64.09,3,.14,4.23.14q7.93,0,11-3.9t3.07-16.2V60.7q0-11.34-3.55-14.76T576.1,42.52Zm139-37.87h96V49H772.65v42h36V133h-36V181.7H814.9V226H715.1ZM945,4.65V226H887.44V4.65ZM1263.86,101H1206.3V62.57q0-16.78-1.85-20.94t-8.13-4.16q-7.11,0-9,5.06t-1.92,21.87V167.21q0,16.14,1.91,21.06t8.62,4.92q6.42,0,8.4-4.94t2-23.16V137.27h57.56v8.63q0,34.36-4.86,48.74t-21.46,25.19q-16.62,10.81-41,10.82-25.29,0-41.7-9.16t-21.74-25.36q-5.33-16.2-5.33-48.74V82.72q0-23.93,1.64-35.89a50.3,50.3,0,0,1,9.77-23q8.14-11.07,22.56-17.43T1195,0q25.42,0,42,9.83t21.74,24.51q5.21,14.67,5.2,45.67Zm134.2-96.39V226H1340.5V4.65Zm195,0V49h-34.18V226h-57.56V49h-34V4.65Zm198.74,0-42,141.23V226h-53.32V145.88L1656.07,4.65H1709q12.39,64.82,14,87.23,4.77-35.43,16-87.23Z"/></g></g></svg>