<svg xmlns="http://www.w3.org/2000/svg" viewBox="0 0 25.31 20.53"><defs><style>.cls-1{fill:#fff;fill-rule:evenodd;}</style></defs><g id="圖層_2" data-name="圖層 2"><g id="圖層_1-2" data-name="圖層 1"><path id="Path_39" data-name="Path 39" class="cls-1" d="M8,20.53A14.63,14.63,0,0,0,22.78,6v-1a11.5,11.5,0,0,0,2.53-2.68,11.58,11.58,0,0,1-2.95.84A5.44,5.44,0,0,0,24.61.42a13.07,13.07,0,0,1-3.24,1.27A5,5,0,0,0,17.58,0a5.27,5.27,0,0,0-5.2,5.2,2.73,2.73,0,0,0,.14,1.13A14.54,14.54,0,0,1,1.83.84a5.47,5.47,0,0,0-.7,2.68A5.61,5.61,0,0,0,3.38,7.88,4.79,4.79,0,0,1,1,7.18H1A5.13,5.13,0,0,0,5.2,12.23a4.19,4.19,0,0,1-1.41.15,2.34,2.34,0,0,1-1-.15,5.32,5.32,0,0,0,4.92,3.66,10.61,10.61,0,0,1-6.47,2.25A3.85,3.85,0,0,1,0,18a13.25,13.25,0,0,0,8,2.53"/></g></g></svg>